# Blender v2.82 (sub 7) OBJ File: 'marty-no-thruster.blend1'
# www.blender.org
o Shape_IndexedFaceSet.127
v -0.433933 0.369223 0.399869
v -0.433933 0.371763 0.399869
v -0.434002 0.369223 0.397572
v -0.434002 0.371763 0.397572
v -0.434002 0.369223 0.402167
v -0.434002 0.371763 0.402167
v -0.434545 0.369223 0.393009
v -0.434545 0.371763 0.393009
v -0.434545 0.369223 0.406729
v -0.434545 0.371763 0.406729
v -0.435624 0.369223 0.388542
v -0.435624 0.371763 0.388542
v -0.435624 0.369223 0.411196
v -0.435624 0.371763 0.411196
v -0.437224 0.369223 0.384235
v -0.437224 0.371763 0.384235
v -0.437224 0.369223 0.415503
v -0.437224 0.371763 0.415503
v -0.439323 0.369223 0.380147
v -0.439323 0.371763 0.380147
v -0.439323 0.369223 0.419591
v -0.439323 0.371763 0.419591
v -0.441890 0.369223 0.376336
v -0.441890 0.371763 0.376336
v -0.441890 0.369223 0.423403
v -0.441890 0.371763 0.423403
v -0.444889 0.369223 0.372855
v -0.444889 0.371763 0.372855
v -0.444889 0.369223 0.426883
v -0.444889 0.371763 0.426883
v -0.448280 0.369223 0.369753
v -0.448280 0.371763 0.369753
v -0.448280 0.369223 0.429985
v -0.448280 0.371763 0.429985
v -0.452013 0.369223 0.367074
v -0.452013 0.371763 0.367074
v -0.452013 0.369223 0.432664
v -0.452013 0.371763 0.432664
v -0.456037 0.369223 0.364856
v -0.456037 0.371763 0.364856
v -0.456037 0.369223 0.434882
v -0.456037 0.371763 0.434882
v -0.460295 0.369223 0.363129
v -0.460295 0.371763 0.363129
v -0.460295 0.369223 0.436609
v -0.460295 0.371763 0.436609
v -0.464728 0.369223 0.361918
v -0.464728 0.371763 0.361918
v -0.464728 0.369223 0.437820
v -0.464728 0.371763 0.437820
v -0.469273 0.369223 0.361239
v -0.469273 0.371763 0.361239
v -0.469273 0.369223 0.438499
v -0.469273 0.371763 0.438499
v -0.472716 0.369223 0.399869
v -0.472716 0.371763 0.399869
v -0.473866 0.369223 0.361103
v -0.473866 0.371763 0.361103
v -0.473866 0.369223 0.438635
v -0.473866 0.371763 0.438635
v -0.478443 0.369223 0.361511
v -0.478443 0.371763 0.361511
v -0.478443 0.369223 0.438227
v -0.478443 0.371763 0.438227
v -0.482939 0.369223 0.362458
v -0.482939 0.371763 0.362458
v -0.482939 0.369223 0.437281
v -0.482939 0.371763 0.437281
v -0.487292 0.369223 0.363929
v -0.487292 0.371763 0.363929
v -0.487292 0.369223 0.435809
v -0.487292 0.371763 0.435809
v -0.491441 0.369223 0.365905
v -0.491441 0.371763 0.365905
v -0.491441 0.369223 0.433833
v -0.491441 0.371763 0.433833
v -0.495326 0.369223 0.368358
v -0.495326 0.371763 0.368358
v -0.495326 0.369223 0.431380
v -0.495326 0.371763 0.431380
v -0.498894 0.369223 0.371254
v -0.498894 0.371763 0.371254
v -0.498894 0.369223 0.428484
v -0.498894 0.371763 0.428484
v -0.502095 0.369223 0.374551
v -0.502095 0.371763 0.374551
v -0.502095 0.369223 0.425187
v -0.502095 0.371763 0.425187
v -0.504883 0.369223 0.378203
v -0.504883 0.371763 0.378203
v -0.504883 0.369223 0.421535
v -0.504883 0.371763 0.421535
v -0.507220 0.369223 0.382160
v -0.507220 0.371763 0.382160
v -0.507220 0.369223 0.417579
v -0.507220 0.371763 0.417579
v -0.509072 0.369223 0.386365
v -0.509072 0.371763 0.386365
v -0.509072 0.369223 0.413373
v -0.509072 0.371763 0.413373
v -0.510414 0.369223 0.390759
v -0.510414 0.371763 0.390759
v -0.510414 0.369223 0.408979
v -0.510414 0.371763 0.408979
v -0.511227 0.369223 0.395282
v -0.511227 0.371763 0.395282
v -0.511227 0.369223 0.404456
v -0.511227 0.371763 0.404456
v -0.511499 0.369223 0.399869
v -0.511499 0.371763 0.399869
vt 0.000890 0.529639
vt 0.000000 0.500000
vt 0.000000 0.500000
vt 0.000890 0.470374
vt 0.000890 0.470374
vt 0.007890 0.411520
vt 0.007890 0.411520
vt 0.021801 0.353905
vt 0.021801 0.353905
vt 0.042428 0.298354
vt 0.042428 0.298354
vt 0.069489 0.245628
vt 0.069489 0.245628
vt 0.102584 0.196474
vt 0.102584 0.196474
vt 0.141247 0.151576
vt 0.141247 0.151576
vt 0.184965 0.111567
vt 0.184965 0.111567
vt 0.233092 0.077013
vt 0.233092 0.077013
vt 0.284970 0.048406
vt 0.284970 0.048406
vt 0.339865 0.026131
vt 0.339865 0.026131
vt 0.397017 0.010512
vt 0.397017 0.010512
vt 0.455612 0.001754
vt 0.455612 0.001754
vt 0.514826 0.000000
vt 0.514826 0.000000
vt 0.573834 0.005262
vt 0.573834 0.005262
vt 0.631797 0.017477
vt 0.631797 0.017477
vt 0.687917 0.036449
vt 0.687917 0.036449
vt 0.741407 0.061936
vt 0.741407 0.061936
vt 0.791494 0.093574
vt 0.791494 0.093574
vt 0.837493 0.130927
vt 0.837493 0.130927
vt 0.878761 0.173451
vt 0.878761 0.173451
vt 0.914705 0.220554
vt 0.914705 0.220554
vt 0.944834 0.271591
vt 0.944834 0.271591
vt 0.968711 0.325827
vt 0.968711 0.325827
vt 0.986012 0.382500
vt 0.986012 0.382500
vt 0.996493 0.440837
vt 0.996493 0.440837
vt 1.000000 0.500000
vt 1.000000 0.500000
vt 0.996493 0.559163
vt 0.996493 0.559163
vt 0.986012 0.617500
vt 0.986012 0.617500
vt 0.968711 0.674173
vt 0.968711 0.674173
vt 0.944834 0.728422
vt 0.944834 0.728422
vt 0.914705 0.779446
vt 0.914705 0.779446
vt 0.878761 0.826549
vt 0.878761 0.826549
vt 0.837493 0.869073
vt 0.837493 0.869073
vt 0.791494 0.906426
vt 0.791494 0.906426
vt 0.741407 0.938064
vt 0.741407 0.938064
vt 0.687917 0.963551
vt 0.687917 0.963551
vt 0.631797 0.982536
vt 0.631797 0.982536
vt 0.573834 0.994738
vt 0.573834 0.994738
vt 0.514826 1.000000
vt 0.514826 1.000000
vt 0.455612 0.998246
vt 0.455612 0.998246
vt 0.397017 0.989488
vt 0.397017 0.989488
vt 0.339865 0.973869
vt 0.339865 0.973869
vt 0.284970 0.951594
vt 0.284970 0.951594
vt 0.233092 0.922987
vt 0.233092 0.922987
vt 0.184965 0.888433
vt 0.184965 0.888433
vt 0.141247 0.848424
vt 0.141247 0.848424
vt 0.102584 0.803539
vt 0.102584 0.803539
vt 0.069489 0.754372
vt 0.069489 0.754372
vt 0.042428 0.701646
vt 0.042428 0.701646
vt 0.021801 0.646095
vt 0.021801 0.646095
vt 0.007890 0.588480
vt 0.007890 0.588480
vt 0.000890 0.529639
vt 0.500000 0.500000
vt 0.500000 0.500000
vn 0.9995 0.0000 0.0300
vn 0.9995 0.0000 -0.0300
vn 0.9930 0.0000 -0.1182
vn 0.9720 0.0000 -0.2348
vn 0.9374 0.0000 -0.3482
vn 0.8896 0.0000 -0.4568
vn 0.8294 0.0000 -0.5587
vn 0.7576 0.0000 -0.6527
vn 0.6750 0.0000 -0.7379
vn 0.6750 0.0000 -0.7378
vn 0.5830 0.0000 -0.8124
vn 0.5831 0.0000 -0.8124
vn 0.4827 0.0000 -0.8758
vn 0.3759 0.0000 -0.9267
vn 0.2635 0.0000 -0.9647
vn 0.1478 0.0000 -0.9890
vn 0.0296 0.0000 -0.9996
vn -0.0888 0.0000 -0.9961
vn -0.2061 0.0000 -0.9785
vn -0.3201 0.0000 -0.9474
vn -0.3202 0.0000 -0.9474
vn -0.4300 0.0000 -0.9028
vn -0.5339 0.0000 -0.8456
vn -0.6302 0.0000 -0.7764
vn -0.7175 0.0000 -0.6966
vn -0.7949 0.0000 -0.6068
vn -0.7948 0.0000 -0.6068
vn -0.8610 0.0000 -0.5085
vn -0.9152 0.0000 -0.4031
vn -0.9564 0.0000 -0.2921
vn -0.9842 0.0000 -0.1769
vn -0.9982 0.0000 -0.0592
vn -0.9982 0.0000 0.0592
vn -0.9842 0.0000 0.1769
vn -0.9564 0.0000 0.2921
vn -0.9152 0.0000 0.4030
vn -0.8610 0.0000 0.5086
vn -0.7948 0.0000 0.6068
vn -0.7949 0.0000 0.6068
vn -0.7175 0.0000 0.6966
vn -0.6302 0.0000 0.7764
vn -0.5339 0.0000 0.8456
vn -0.4300 0.0000 0.9028
vn -0.3203 0.0000 0.9473
vn -0.3204 0.0000 0.9473
vn -0.2059 0.0000 0.9786
vn -0.0888 0.0000 0.9961
vn 0.0296 0.0000 0.9996
vn 0.1478 0.0000 0.9890
vn 0.1477 0.0000 0.9890
vn 0.2635 0.0000 0.9647
vn 0.3759 0.0000 0.9267
vn 0.4827 0.0000 0.8758
vn 0.5831 0.0000 0.8124
vn 0.6750 0.0000 0.7379
vn 0.7575 0.0000 0.6528
vn 0.8295 0.0000 0.5586
vn 0.8896 0.0000 0.4568
vn 0.9374 0.0000 0.3482
vn 0.9720 0.0000 0.2348
vn 0.9930 0.0000 0.1182
vn 0.0000 -1.0000 0.0000
vn 0.0000 1.0000 0.0000
s off
f 5/1/1 1/2/1 2/3/1
f 2/3/2 1/2/2 4/4/2
f 1/2/2 3/5/2 4/4/2
f 4/4/3 3/5/3 7/6/3
f 4/4/3 7/6/3 8/7/3
f 8/7/4 7/6/4 11/8/4
f 8/7/4 11/8/4 12/9/4
f 12/9/5 11/8/5 15/10/5
f 12/9/5 15/10/5 16/11/5
f 16/11/6 15/10/6 19/12/6
f 16/11/6 19/12/6 20/13/6
f 20/13/7 19/12/7 23/14/7
f 20/13/7 23/14/7 24/15/7
f 24/15/8 23/14/8 27/16/8
f 24/15/8 27/16/8 28/17/8
f 28/17/9 27/16/9 31/18/9
f 28/17/10 31/18/10 32/19/10
f 32/19/11 31/18/11 35/20/11
f 32/19/12 35/20/12 36/21/12
f 36/21/13 35/20/13 39/22/13
f 36/21/13 39/22/13 40/23/13
f 40/23/14 39/22/14 43/24/14
f 40/23/14 43/24/14 44/25/14
f 44/25/15 43/24/15 47/26/15
f 44/25/15 47/26/15 48/27/15
f 48/27/16 47/26/16 51/28/16
f 48/27/16 51/28/16 52/29/16
f 52/29/17 51/28/17 57/30/17
f 52/29/17 57/30/17 58/31/17
f 58/31/18 57/30/18 61/32/18
f 58/31/18 61/32/18 62/33/18
f 62/33/19 61/32/19 65/34/19
f 62/33/19 65/34/19 66/35/19
f 66/35/20 65/34/20 69/36/20
f 66/35/21 69/36/21 70/37/21
f 70/37/22 69/36/22 73/38/22
f 70/37/22 73/38/22 74/39/22
f 74/39/23 73/38/23 77/40/23
f 74/39/23 77/40/23 78/41/23
f 78/41/24 77/40/24 81/42/24
f 78/41/24 81/42/24 82/43/24
f 82/43/25 81/42/25 85/44/25
f 82/43/25 85/44/25 86/45/25
f 86/45/26 85/44/26 89/46/26
f 86/45/27 89/46/27 90/47/27
f 90/47/28 89/46/28 93/48/28
f 90/47/28 93/48/28 94/49/28
f 94/49/29 93/48/29 97/50/29
f 94/49/29 97/50/29 98/51/29
f 98/51/30 97/50/30 101/52/30
f 98/51/30 101/52/30 102/53/30
f 102/53/31 101/52/31 105/54/31
f 102/53/31 105/54/31 106/55/31
f 106/55/32 105/54/32 109/56/32
f 106/55/32 109/56/32 110/57/32
f 110/57/33 109/56/33 107/58/33
f 110/57/33 107/58/33 108/59/33
f 108/59/34 107/58/34 103/60/34
f 108/59/34 103/60/34 104/61/34
f 104/61/35 103/60/35 99/62/35
f 104/61/35 99/62/35 100/63/35
f 100/63/36 99/62/36 95/64/36
f 100/63/36 95/64/36 96/65/36
f 96/65/37 95/64/37 91/66/37
f 96/65/37 91/66/37 92/67/37
f 92/67/38 91/66/38 87/68/38
f 92/67/39 87/68/39 88/69/39
f 88/69/40 87/68/40 83/70/40
f 88/69/40 83/70/40 84/71/40
f 84/71/41 83/70/41 79/72/41
f 84/71/41 79/72/41 80/73/41
f 80/73/42 79/72/42 75/74/42
f 80/73/42 75/74/42 76/75/42
f 76/75/43 75/74/43 71/76/43
f 76/75/43 71/76/43 72/77/43
f 72/77/44 71/76/44 67/78/44
f 72/77/45 67/78/45 68/79/45
f 68/79/46 67/78/46 63/80/46
f 68/79/46 63/80/46 64/81/46
f 64/81/47 63/80/47 59/82/47
f 64/81/47 59/82/47 60/83/47
f 60/83/48 59/82/48 53/84/48
f 60/83/48 53/84/48 54/85/48
f 54/85/49 53/84/49 49/86/49
f 54/85/50 49/86/50 50/87/50
f 50/87/51 49/86/51 45/88/51
f 50/87/51 45/88/51 46/89/51
f 46/89/52 45/88/52 41/90/52
f 46/89/52 41/90/52 42/91/52
f 42/91/53 41/90/53 37/92/53
f 42/91/53 37/92/53 38/93/53
f 38/93/54 37/92/54 33/94/54
f 38/93/54 33/94/54 34/95/54
f 34/95/55 33/94/55 29/96/55
f 34/95/55 29/96/55 30/97/55
f 30/97/56 29/96/56 25/98/56
f 30/97/56 25/98/56 26/99/56
f 26/99/57 25/98/57 21/100/57
f 26/99/57 21/100/57 22/101/57
f 22/101/58 21/100/58 17/102/58
f 22/101/58 17/102/58 18/103/58
f 18/103/59 17/102/59 13/104/59
f 18/103/59 13/104/59 14/105/59
f 14/105/60 13/104/60 9/106/60
f 14/105/60 9/106/60 10/107/60
f 10/107/61 9/106/61 5/1/61
f 10/107/61 5/1/61 6/108/61
f 6/108/1 5/1/1 2/3/1
f 7/6/62 3/5/62 55/109/62
f 55/109/62 3/5/62 1/2/62
f 55/109/62 1/2/62 5/1/62
f 19/12/62 15/10/62 55/109/62
f 55/109/62 15/10/62 11/8/62
f 55/109/62 11/8/62 7/6/62
f 31/18/62 27/16/62 55/109/62
f 55/109/62 27/16/62 23/14/62
f 55/109/62 23/14/62 19/12/62
f 43/24/62 39/22/62 55/109/62
f 55/109/62 39/22/62 35/20/62
f 55/109/62 35/20/62 31/18/62
f 57/30/62 51/28/62 55/109/62
f 55/109/62 51/28/62 47/26/62
f 55/109/62 47/26/62 43/24/62
f 69/36/62 65/34/62 55/109/62
f 55/109/62 65/34/62 61/32/62
f 55/109/62 61/32/62 57/30/62
f 81/42/62 77/40/62 55/109/62
f 55/109/62 77/40/62 73/38/62
f 55/109/62 73/38/62 69/36/62
f 93/48/62 89/46/62 55/109/62
f 55/109/62 89/46/62 85/44/62
f 55/109/62 85/44/62 81/42/62
f 105/54/62 101/52/62 55/109/62
f 55/109/62 101/52/62 97/50/62
f 55/109/62 97/50/62 93/48/62
f 103/60/62 107/58/62 55/109/62
f 55/109/62 107/58/62 109/56/62
f 55/109/62 109/56/62 105/54/62
f 91/66/62 95/64/62 55/109/62
f 55/109/62 95/64/62 99/62/62
f 55/109/62 99/62/62 103/60/62
f 79/72/62 83/70/62 55/109/62
f 55/109/62 83/70/62 87/68/62
f 55/109/62 87/68/62 91/66/62
f 67/78/62 71/76/62 55/109/62
f 55/109/62 71/76/62 75/74/62
f 55/109/62 75/74/62 79/72/62
f 53/84/62 59/82/62 55/109/62
f 55/109/62 59/82/62 63/80/62
f 55/109/62 63/80/62 67/78/62
f 41/90/62 45/88/62 55/109/62
f 55/109/62 45/88/62 49/86/62
f 55/109/62 49/86/62 53/84/62
f 29/96/62 33/94/62 55/109/62
f 55/109/62 33/94/62 37/92/62
f 55/109/62 37/92/62 41/90/62
f 17/102/62 21/100/62 55/109/62
f 55/109/62 21/100/62 25/98/62
f 55/109/62 25/98/62 29/96/62
f 5/1/62 9/106/62 55/109/62
f 55/109/62 9/106/62 13/104/62
f 55/109/62 13/104/62 17/102/62
f 10/107/63 6/108/63 56/110/63
f 56/110/63 6/108/63 2/3/63
f 56/110/63 2/3/63 4/4/63
f 22/101/63 18/103/63 56/110/63
f 56/110/63 18/103/63 14/105/63
f 56/110/63 14/105/63 10/107/63
f 34/95/63 30/97/63 56/110/63
f 56/110/63 30/97/63 26/99/63
f 56/110/63 26/99/63 22/101/63
f 46/89/63 42/91/63 56/110/63
f 56/110/63 42/91/63 38/93/63
f 56/110/63 38/93/63 34/95/63
f 60/83/63 54/85/63 56/110/63
f 56/110/63 54/85/63 50/87/63
f 56/110/63 50/87/63 46/89/63
f 72/77/63 68/79/63 56/110/63
f 56/110/63 68/79/63 64/81/63
f 56/110/63 64/81/63 60/83/63
f 84/71/63 80/73/63 56/110/63
f 56/110/63 80/73/63 76/75/63
f 56/110/63 76/75/63 72/77/63
f 96/65/63 92/67/63 56/110/63
f 56/110/63 92/67/63 88/69/63
f 56/110/63 88/69/63 84/71/63
f 108/59/63 104/61/63 56/110/63
f 56/110/63 104/61/63 100/63/63
f 56/110/63 100/63/63 96/65/63
f 102/53/63 106/55/63 56/110/63
f 56/110/63 106/55/63 110/57/63
f 56/110/63 110/57/63 108/59/63
f 90/47/63 94/49/63 56/110/63
f 56/110/63 94/49/63 98/51/63
f 56/110/63 98/51/63 102/53/63
f 78/41/63 82/43/63 56/110/63
f 56/110/63 82/43/63 86/45/63
f 56/110/63 86/45/63 90/47/63
f 66/35/63 70/37/63 56/110/63
f 56/110/63 70/37/63 74/39/63
f 56/110/63 74/39/63 78/41/63
f 52/29/63 58/31/63 56/110/63
f 56/110/63 58/31/63 62/33/63
f 56/110/63 62/33/63 66/35/63
f 40/23/63 44/25/63 56/110/63
f 56/110/63 44/25/63 48/27/63
f 56/110/63 48/27/63 52/29/63
f 28/17/63 32/19/63 56/110/63
f 56/110/63 32/19/63 36/21/63
f 56/110/63 36/21/63 40/23/63
f 16/11/63 20/13/63 56/110/63
f 56/110/63 20/13/63 24/15/63
f 56/110/63 24/15/63 28/17/63
f 4/4/63 8/7/63 56/110/63
f 56/110/63 8/7/63 12/9/63
f 56/110/63 12/9/63 16/11/63
