# Blender v2.82 (sub 7) OBJ File: ''
# www.blender.org
mtllib pool90.mtl
o pool_Cube.001
v 25.000000 2.000000 -50.000000
v 25.000000 2.000000 49.999996
v -25.000000 2.000000 -50.000000
v -25.000000 2.000000 49.999996
v -25.000187 -1.998912 -11.399872
v 24.999813 -1.998912 -11.399872
v -25.000187 -0.558912 -46.399868
v 24.999813 -0.558912 -46.399868
v -25.000000 -1.995641 -46.400002
v -25.000000 -0.555641 -46.400002
v -25.000000 -1.995641 -50.000000
v -25.000000 -0.555641 -50.000000
v 25.000000 -1.995641 -46.400002
v 25.000000 -0.555641 -46.400002
v 25.000000 -1.995641 -50.000000
v 25.000000 -0.555641 -50.000000
v -25.000000 -1.588072 -49.983051
v -25.000000 -1.588072 50.016941
v 25.000000 -1.588072 -49.983051
v 25.000000 2.411928 -49.983051
v -25.000000 2.411928 50.016941
v 25.000000 2.411928 50.016941
v 25.000000 -1.588072 50.016941
v -25.000000 2.411928 -49.983051
v -25.000187 -0.146984 -46.382919
v -25.000187 -1.586984 -11.382923
v 24.999813 -1.586984 -11.382923
v 24.999813 -0.146984 -46.382919
v -25.000000 -0.143713 -46.383053
v -25.000000 -0.143713 -49.983051
v 25.000000 -0.143713 -49.983051
v 25.000000 -0.143713 -46.383053
v -25.491846 -1.588072 -49.983051
v -25.491846 -1.588072 50.016941
v -25.491846 2.411928 50.016941
v -25.491846 2.411928 -49.983051
v 25.000000 -1.588072 -50.445068
v -25.000000 -1.588072 -50.445068
v 25.000000 2.411928 -50.445068
v -25.000000 2.411928 -50.445068
v -25.000187 -0.702200 -46.405762
v -25.000187 -2.142200 -11.405769
v 24.999813 -2.142200 -11.405769
v 24.999813 -0.702200 -46.405762
v -25.000000 -2.011848 -49.983051
v -25.000000 -2.011848 50.016941
v 25.000000 -2.011848 -49.983051
v 25.000000 -2.011848 50.016941
v 26.113150 2.411928 50.016941
v 26.113150 2.000000 49.999996
v 26.113150 2.000000 -50.000000
v 26.113150 2.411928 -49.983051
v 26.113150 -1.588072 -49.983051
v 26.113150 -1.588072 50.016941
v 26.113150 -2.011848 50.016941
v 26.113150 -2.011848 -49.983051
v -25.000000 -1.588072 51.142193
v -25.000000 2.411928 51.142193
v 25.000000 2.411928 51.142193
v 25.000000 -1.588072 51.142193
vt 0.000000 0.000000
vt 0.000000 0.000000
vt 0.000000 0.000000
vt 0.625000 0.750000
vt 0.625000 1.000000
vt 0.625000 1.000000
vt 0.000000 0.000000
vt 0.000000 0.000000
vt 0.000000 0.000000
vt 0.000000 0.000000
vt 0.000000 0.000000
vt 0.000000 0.000000
vt 0.000000 0.000000
vt 0.000000 0.000000
vt 0.000000 0.000000
vt 0.625000 0.000000
vt 0.375000 0.250000
vt 0.375000 0.000000
vt 0.625000 0.250000
vt 0.375000 0.500000
vt 0.625000 0.500000
vt 0.375000 0.750000
vt 0.375000 1.000000
vt 0.125000 0.750000
vt 0.125000 0.500000
vt 0.000000 0.000000
vt 0.000000 0.000000
vt 0.375000 0.750000
vt 0.375000 1.000000
vt 0.375000 1.000000
vt 0.125000 0.750000
vt 0.125000 0.500000
vt 0.125000 0.500000
vt 0.375000 0.750000
vt 0.375000 0.500000
vt 0.375000 0.500000
vt 0.375000 0.500000
vt 0.625000 0.500000
vt 0.625000 0.500000
vt 0.000000 0.000000
vt 0.875000 0.500000
vt 0.625000 0.750000
vt 0.625000 0.500000
vt 0.375000 0.500000
vt 0.000000 0.000000
vt 0.625000 0.250000
vt 0.625000 0.000000
vt 0.375000 0.250000
vt 0.375000 0.000000
vt 0.000000 0.000000
vt 0.375000 0.250000
vt 0.625000 0.250000
vt 0.625000 0.250000
vt 0.625000 1.000000
vt 0.375000 1.000000
vt 0.625000 0.250000
vt 0.375000 0.500000
vt 0.375000 0.250000
vt 0.000000 0.000000
vt 0.000000 0.000000
vt 1.000000 0.000000
vt 0.000000 1.000000
vt 0.000000 0.000000
vt 0.000000 0.000000
vt 0.000000 0.000000
vt 0.125000 0.750000
vt 0.125000 0.500000
vt 0.625000 0.750000
vt 0.625000 0.750000
vt 0.625000 0.500000
vt 0.375000 0.750000
vt 0.000000 0.000000
vt 0.000000 0.000000
vt 0.000000 0.000000
vt 0.375000 0.750000
vt 0.625000 0.750000
vt 0.375000 0.750000
vt 0.000000 0.000000
vt 0.625000 1.000000
vt 0.125000 0.750000
vt 0.375000 1.000000
vt 0.875000 0.750000
vt 0.625000 0.000000
vt 0.000000 0.000000
vt 0.625000 1.000000
vt 0.125000 0.500000
vt 0.000000 0.000000
vt 1.000000 1.000000
vt 0.000000 0.000000
vt 0.000000 0.000000
vn 0.0000 -0.0411 0.9992
vn 0.0000 0.0411 -0.9992
vn 1.0000 0.0000 0.0000
vn -1.0000 0.0000 0.0000
vn 0.0000 0.0000 -1.0000
vn 0.0000 0.0000 1.0000
vn 0.0000 -1.0000 0.0000
vn 0.0000 1.0000 0.0000
vn 0.0000 0.9992 0.0411
g pool_Cube.001_Material.001
usemtl Material.001
s off
f 1/1/1 24/2/1 3/3/1
f 14/4/1 29/5/1 10/6/1
f 6/7/1 26/8/1 5/9/1
f 4/10/2 22/11/2 2/12/2
f 4/10/3 24/2/3 21/13/3
f 7/14/4 26/8/4 25/15/4
f 10/16/4 11/17/4 9/18/4
f 12/19/5 15/20/5 11/17/5
f 16/21/3 13/22/3 15/20/3
f 14/4/6 9/23/6 13/22/6
f 15/20/7 9/24/7 11/25/7
f 7/14/2 28/26/2 8/27/2
f 23/28/7 57/29/7 18/30/7
f 18/31/7 33/32/7 17/33/7
f 18/30/6 48/34/6 23/28/6
f 19/35/5 56/36/5 47/37/5
f 19/35/3 39/38/3 20/39/3
f 25/15/1 44/40/1 28/26/1
f 30/41/8 32/42/8 31/43/8
f 14/4/3 31/43/3 32/42/3
f 20/39/5 53/44/5 19/35/5
f 8/27/3 27/45/3 6/7/3
f 12/19/2 31/43/2 16/21/2
f 10/16/4 30/46/4 12/19/4
f 35/47/4 33/48/4 34/49/4
f 24/2/8 35/50/8 21/13/8
f 17/51/5 36/52/5 24/53/5
f 21/54/6 34/55/6 18/30/6
f 40/56/5 37/57/5 38/58/5
f 24/53/4 38/58/4 17/51/4
f 17/33/7 37/57/7 19/35/7
f 20/59/8 40/60/8 24/2/8
f 43/61/9 41/62/9 42/63/9
f 27/45/2 42/63/2 26/8/2
f 27/45/4 44/40/4 43/64/4
f 26/8/3 41/65/3 25/15/3
f 47/37/7 46/66/7 45/67/7
f 17/33/4 46/66/4 18/31/4
f 23/28/6 49/68/6 22/69/6
f 19/35/5 45/67/5 17/33/5
f 52/70/3 54/71/3 53/44/3
f 50/72/4 52/73/4 51/74/4
f 54/71/3 56/36/3 53/44/3
f 48/34/6 54/71/6 23/28/6
f 47/37/7 55/75/7 48/34/7
f 22/11/2 50/72/2 2/12/2
f 2/12/8 51/74/8 1/1/8
f 1/1/1 52/73/1 20/59/1
f 59/76/6 57/29/6 60/77/6
f 21/13/8 59/78/8 22/11/8
f 22/69/3 60/77/3 23/28/3
f 18/30/4 58/79/4 21/54/4
f 1/1/1 20/59/1 24/2/1
f 14/4/1 32/42/1 29/5/1
f 6/7/1 27/45/1 26/8/1
f 4/10/2 21/13/2 22/11/2
f 4/10/3 3/3/3 24/2/3
f 7/14/4 5/9/4 26/8/4
f 10/16/4 12/19/4 11/17/4
f 12/19/5 16/21/5 15/20/5
f 16/21/3 14/4/3 13/22/3
f 14/4/6 10/6/6 9/23/6
f 15/20/7 13/22/7 9/24/7
f 7/14/2 25/15/2 28/26/2
f 23/28/7 60/77/7 57/29/7
f 18/31/7 34/80/7 33/32/7
f 18/30/6 46/81/6 48/34/6
f 19/35/5 53/44/5 56/36/5
f 19/35/3 37/57/3 39/38/3
f 25/15/1 41/65/1 44/40/1
f 30/41/8 29/82/8 32/42/8
f 14/4/3 16/21/3 31/43/3
f 20/39/5 52/70/5 53/44/5
f 8/27/3 28/26/3 27/45/3
f 12/19/2 30/46/2 31/43/2
f 10/16/4 29/83/4 30/46/4
f 35/47/4 36/52/4 33/48/4
f 24/2/8 36/84/8 35/50/8
f 17/51/5 33/48/5 36/52/5
f 21/54/6 35/85/6 34/55/6
f 40/56/5 39/38/5 37/57/5
f 24/53/4 40/56/4 38/58/4
f 17/33/7 38/86/7 37/57/7
f 20/59/8 39/87/8 40/60/8
f 43/61/9 44/88/9 41/62/9
f 27/45/2 43/64/2 42/63/2
f 27/45/4 28/26/4 44/40/4
f 26/8/3 42/63/3 41/65/3
f 47/37/7 48/34/7 46/66/7
f 17/33/4 45/67/4 46/66/4
f 23/28/6 54/71/6 49/68/6
f 19/35/5 47/37/5 45/67/5
f 52/70/3 49/68/3 54/71/3
f 50/72/4 49/89/4 52/73/4
f 54/71/3 55/75/3 56/36/3
f 48/34/6 55/75/6 54/71/6
f 47/37/7 56/36/7 55/75/7
f 22/11/2 49/89/2 50/72/2
f 2/12/8 50/72/8 51/74/8
f 1/1/1 51/74/1 52/73/1
f 59/76/6 58/79/6 57/29/6
f 21/13/8 58/90/8 59/78/8
f 22/69/3 59/76/3 60/77/3
f 18/30/4 57/29/4 58/79/4
