# Blender v2.82 (sub 7) OBJ File: ''
# www.blender.org
mtllib rando.mtl
o Without_Gate
v 1000.000000 1000.000000 -3000.000000
v 1000.000000 26000.000000 -3000.000000
v 1000.000000 1000.000000 -1000.000000
v 1000.000000 26000.000000 -1000.000000
v 51000.000000 1000.000000 -3000.000000
v 51000.000000 1000.000000 -1000.000000
v 51000.000000 26000.000000 -3000.000000
v 51000.000000 26000.000000 -1000.000000
v 52000.000000 0.000000 0.000000
v 52000.000000 0.000000 -3000.000000
v 52000.000000 27000.000000 0.000000
v 52000.000000 27000.000000 -3000.000000
v 0.000000 0.000000 0.000000
v 0.000000 0.000000 -3000.000000
v 0.000000 27000.000000 0.000000
v 0.000000 27000.000000 -3000.000000
v 0.000000 75.000763 0.000000
v 52000.000000 75.000763 0.000000
v 0.000000 75.000763 -1720.000000
v 0.000000 27000.000000 -1720.000000
v 2800.000000 75.000763 -1720.000000
v 2800.000000 27000.000000 -1720.000000
v 20300.000000 75.000763 -1000.000000
v 20300.000000 27000.000000 -1000.000000
v 52000.000000 75.000763 -1000.000000
v 52000.000000 27000.000000 -1000.000000
vn 1.0000 0.0000 0.0000
vn 0.0000 1.0000 0.0000
vn -1.0000 0.0000 0.0000
vn 0.0000 -1.0000 0.0000
vn 0.0000 0.0000 -1.0000
vn 0.0000 0.0000 1.0000
vn 0.0411 0.0000 -0.9992
usemtl None
s off
f 1//1 2//1 3//1
f 3//1 2//1 4//1
f 5//2 1//2 6//2
f 6//2 1//2 3//2
f 7//3 5//3 8//3
f 8//3 5//3 6//3
f 9//1 10//1 11//1
f 11//1 10//1 12//1
f 13//4 14//4 9//4
f 9//4 14//4 10//4
f 15//3 16//3 13//3
f 13//3 16//3 14//3
f 11//2 12//2 15//2
f 15//2 12//2 16//2
f 2//4 7//4 4//4
f 4//4 7//4 8//4
f 5//5 10//5 1//5
f 1//5 10//5 14//5
f 1//5 14//5 2//5
f 2//5 14//5 16//5
f 2//5 16//5 7//5
f 7//5 16//5 12//5
f 7//5 12//5 5//5
f 5//5 12//5 10//5
f 8//5 6//5 4//5
f 4//5 6//5 3//5
f 15//6 13//6 11//6
f 11//6 13//6 9//6
f 17//6 18//6 15//6
f 15//6 18//6 11//6
f 19//3 17//3 20//3
f 20//3 17//3 15//3
f 21//5 19//5 22//5
f 22//5 19//5 20//5
f 23//7 21//7 24//7
f 24//7 21//7 22//7
f 25//5 23//5 26//5
f 26//5 23//5 24//5
f 18//1 25//1 11//1
f 11//1 25//1 26//1
f 25//4 18//4 23//4
f 23//4 18//4 17//4
f 23//4 17//4 21//4
f 21//4 17//4 19//4
f 11//2 26//2 24//2
f 11//2 24//2 15//2
f 15//2 24//2 22//2
f 15//2 22//2 20//2
