# Blender v2.93.5 OBJ File: 'sauvc_pool.blend'
# www.blender.org
mtllib sauvc_pool.mtl
o Plane.001_Plane.004
v -9.000000 13.447964 -125.000000
v 96.499992 9.847963 -125.000000
v -9.000000 26.247963 -125.000000
v 96.499992 26.247963 -125.000000
v 249.999985 9.847963 -125.000000
v 249.999985 26.247963 -125.000000
v -8.500000 26.247963 -125.000000
v -8.500000 13.447964 -125.000000
v 96.999992 9.847963 -125.000000
v 96.999992 26.247963 -125.000000
v 250.499985 9.847963 -125.000000
v 250.499985 26.247963 -125.000000
v -9.000000 26.247963 -125.000000
v -9.000000 13.447964 -125.000000
v -8.500000 26.247963 -125.000000
v -8.500000 13.447964 -125.000000
v -8.999999 13.447963 0.000000
v 96.499985 9.847962 0.000000
v -8.999999 26.247963 0.000000
v 96.499985 26.247963 0.000000
v 249.999969 9.847962 0.000000
v 249.999969 26.247963 0.000000
v -8.999999 13.447964 -125.000000
v 96.499985 9.847963 -125.000000
v 249.999969 9.847963 -125.000000
v -9.008524 12.948036 0.000000
v 96.491463 9.348035 0.000000
v 249.991440 9.348035 0.000000
v -9.008524 12.948036 -125.000000
v 96.491463 9.348036 -125.000000
v 249.991440 9.348036 -125.000000
v -8.999999 26.247963 0.500000
v -8.999999 13.447962 0.500000
v 96.499985 9.847962 0.500000
v 96.499985 26.247963 0.500000
v 249.999969 9.847962 0.500000
v 249.999969 26.247963 0.500000
v 250.499969 9.847962 0.000000
v 250.499969 9.847962 0.500000
v 250.499969 26.247963 0.000000
v 250.499969 26.247963 0.500000
v 249.999969 9.847967 -125.000000
v 249.999969 26.247967 -125.000000
v 250.499969 9.847967 -125.000000
v 250.499969 26.247967 -125.000000
v -9.499999 26.247963 0.000000
v -9.499999 13.447963 0.000000
v -9.499999 26.247963 0.500000
v -9.499999 13.447962 0.500000
v -8.999999 26.247969 -125.000000
v -8.999999 13.447968 -125.000000
v -9.499999 26.247969 -125.000000
v -9.499999 13.447968 -125.000000
vt 0.000000 0.000000
vt 0.000000 1.000000
vt 1.000000 1.000000
vt 1.000000 0.000000
vt 1.000000 1.000000
vt 1.000000 0.000000
vt 0.000000 0.000000
vt 1.000000 0.000000
vt 1.000000 1.000000
vt 0.000000 1.000000
vt 1.000000 0.000000
vt 1.000000 1.000000
vt 0.000000 0.000000
vt 0.000000 0.000000
vt 0.000000 1.000000
vt 0.000000 1.000000
vt 1.000000 0.000000
vt 1.000000 0.000000
vt 1.000000 0.000000
vt 1.000000 0.000000
vt 1.000000 0.000000
vt 1.000000 0.000000
vt 0.000000 0.000000
vt 0.000000 0.000000
vt 0.000000 0.000000
vt 0.000000 0.000000
vt 1.000000 0.000000
vt 1.000000 0.000000
vt 1.000000 0.000000
vt 1.000000 0.000000
vt 0.000000 0.000000
vt 0.000000 0.000000
vt 0.000000 0.000000
vt 0.000000 0.000000
vt 0.000000 0.000000
vt 0.000000 0.000000
vt 0.000000 0.000000
vt 1.000000 1.000000
vt 0.000000 1.000000
vt 1.000000 1.000000
vt 0.000000 1.000000
vt 0.000000 0.000000
vt 0.000000 0.000000
vt 0.000000 0.000000
vt 0.000000 0.000000
vt 0.000000 0.000000
vt 0.000000 0.000000
vt 0.000000 0.000000
vt 0.000000 0.000000
vt 0.000000 0.000000
vt 0.000000 0.000000
vt 0.000000 0.000000
vt 1.000000 1.000000
vt 1.000000 0.000000
vt 1.000000 0.000000
vt 0.000000 0.000000
vt 0.000000 0.000000
vt 0.000000 0.000000
vt 0.000000 0.000000
vt 0.000000 0.000000
vt 0.000000 0.000000
vt 0.000000 0.000000
vt 0.000000 0.000000
vt 0.000000 0.000000
vt 0.000000 0.000000
vt 0.000000 0.000000
vn 0.0000 0.0000 -1.0000
vn 0.0000 0.0000 1.0000
vn 0.0000 -1.0000 0.0000
vn -0.9999 0.0171 0.0000
vn -0.0341 -0.9994 -0.0000
vn 0.9999 -0.0171 -0.0000
vn 0.0000 1.0000 0.0000
vn 1.0000 0.0000 0.0000
vn -1.0000 0.0000 0.0000
usemtl None
s off
f 1/1/1 3/2/1 4/3/1 2/4/1
f 4/3/1 6/5/1 5/6/1 2/4/1
f 8/7/2 9/8/2 10/9/2 7/10/2
f 10/9/2 9/8/2 11/11/2 12/12/2
f 2/4/2 5/6/2 11/11/2 9/8/2
f 5/6/1 6/5/1 12/12/1 11/11/1
f 1/1/2 8/7/2 16/13/2 14/14/2
f 6/5/2 4/3/2 10/9/2 12/12/2
f 4/3/2 3/2/2 7/10/2 10/9/2
f 1/1/2 2/4/2 9/8/2 8/7/2
f 13/15/2 14/14/2 16/13/2 15/16/2
f 3/2/2 1/1/2 14/14/2 13/15/2
f 8/7/2 7/10/2 15/16/2 16/13/2
f 7/10/2 3/2/2 13/15/2 15/16/2
f 36/17/3 21/18/3 38/19/3 39/20/3
f 18/21/3 21/18/3 36/17/3 34/22/3
f 17/23/4 23/24/4 29/25/4 26/26/4
f 21/18/2 18/21/2 27/27/2 28/28/2
f 28/28/3 27/27/3 30/29/3 31/30/3
f 27/27/5 26/26/5 29/25/5 30/29/5
f 25/31/6 21/32/6 28/33/6 31/34/6
f 23/24/1 24/35/1 30/36/1 29/25/1
f 18/21/2 17/23/2 26/26/2 27/27/2
f 24/35/1 25/31/1 31/34/1 30/36/1
f 33/37/2 34/22/2 35/38/2 32/39/2
f 35/38/2 34/22/2 36/17/2 37/40/2
f 33/37/2 32/39/2 48/41/2 49/42/2
f 22/43/7 20/44/7 35/45/7 37/46/7
f 20/44/7 19/47/7 32/48/7 35/45/7
f 17/23/5 18/21/5 34/22/5 33/37/5
f 38/49/8 40/50/8 41/51/8 39/52/8
f 22/43/7 37/46/7 41/51/7 40/50/7
f 37/40/2 36/17/2 39/20/2 41/53/2
f 38/19/3 21/18/3 42/54/3 44/55/3
f 42/56/1 43/57/1 45/58/1 44/59/1
f 22/43/7 40/50/7 45/58/7 43/57/7
f 21/32/9 22/43/9 43/57/9 42/56/9
f 40/50/8 38/49/8 44/59/8 45/58/8
f 46/60/9 47/61/9 49/42/9 48/62/9
f 19/47/8 17/23/8 51/63/8 50/64/8
f 17/23/3 33/37/3 49/42/3 47/61/3
f 32/48/7 19/47/7 46/60/7 48/62/7
f 50/64/1 51/63/1 53/65/1 52/66/1
f 17/23/3 47/61/3 53/65/3 51/63/3
f 47/61/9 46/60/9 52/66/9 53/65/9
f 46/60/7 19/47/7 50/64/7 52/66/7
