# Blender v2.82 (sub 7) OBJ File: ''
# www.blender.org
mtllib untitled.mtl
o pool_Cube.001
v 25.000000 2.000000 -50.000000
v 25.000000 -2.000000 -50.000000
v 25.000000 2.000000 49.999996
v 25.000000 -2.000000 49.999996
v -25.000000 2.000000 -50.000000
v -25.000000 -2.000000 -50.000000
v -25.000000 2.000000 49.999996
v -25.000000 -2.000000 49.999996
v -25.000187 -1.998912 -11.399872
v 24.999813 -1.998912 -11.399872
v -25.000187 -0.558912 -46.399868
v 24.999813 -0.558912 -46.399868
v -25.000000 -1.995641 -46.400002
v -25.000000 -0.555641 -46.400002
v -25.000000 -1.995641 -50.000000
v -25.000000 -0.555641 -50.000000
v 25.000000 -1.995641 -46.400002
v 25.000000 -0.555641 -46.400002
v 25.000000 -1.995641 -50.000000
v 25.000000 -0.555641 -50.000000
vt 0.375000 0.750000
vt 0.625000 0.750000
vt 0.625000 1.000000
vt 0.375000 1.000000
vt 0.375000 0.000000
vt 0.625000 0.000000
vt 0.625000 0.250000
vt 0.375000 0.250000
vt 0.125000 0.500000
vt 0.375000 0.500000
vt 0.125000 0.750000
vt 0.625000 0.500000
vt 0.000000 0.000000
vt 1.000000 0.000000
vt 1.000000 1.000000
vt 0.000000 1.000000
vt 0.375000 0.000000
vt 0.625000 0.000000
vt 0.625000 0.250000
vt 0.375000 0.250000
vt 0.625000 0.500000
vt 0.375000 0.500000
vt 0.625000 0.750000
vt 0.375000 0.750000
vt 0.625000 1.000000
vt 0.375000 1.000000
vt 0.125000 0.500000
vt 0.125000 0.750000
vt 0.875000 0.500000
vt 0.875000 0.750000
vn 0.0000 0.0000 1.0000
vn -1.0000 0.0000 0.0000
vn 0.0000 -1.0000 0.0000
vn 1.0000 0.0000 0.0000
vn 0.0000 0.0000 -1.0000
vn 0.0000 0.9992 0.0411
vn 0.0000 1.0000 0.0000
usemtl Material.001
s off
f 4/1/1 3/2/1 7/3/1 8/4/1
f 8/5/2 7/6/2 5/7/2 6/8/2
f 6/9/3 2/10/3 4/1/3 8/11/3
f 2/10/4 1/12/4 3/2/4 4/1/4
f 6/8/5 5/7/5 1/12/5 2/10/5
f 9/13/6 10/14/6 12/15/6 11/16/6
f 13/17/2 14/18/2 16/19/2 15/20/2
f 15/20/5 16/19/5 20/21/5 19/22/5
f 19/22/4 20/21/4 18/23/4 17/24/4
f 17/24/1 18/23/1 14/25/1 13/26/1
f 15/27/3 19/22/3 17/24/3 13/28/3
f 20/21/7 16/29/7 14/30/7 18/23/7
