# Blender v3.6.8 OBJ File: 'm2_prototype.blend'
# www.blender.org
o 4-hull_visual_4-hull
v -0.006486 0.224174 0.048036
v 0.000002 0.224174 0.047658
v 0.000001 -0.075826 0.047658
v 0.006488 -0.075826 0.048036
v 0.006489 0.224174 0.048036
v 0.019114 0.224174 0.051028
v 0.019113 -0.075826 0.051028
v 0.030708 0.224174 0.056851
v 0.030708 -0.075826 0.056851
v 0.040647 0.224174 0.065191
v 0.040647 -0.075826 0.065191
v 0.048395 0.224174 0.075598
v 0.048394 -0.075826 0.075598
v 0.053534 0.224174 0.087512
v 0.053533 -0.075826 0.087512
v 0.055787 0.224174 0.100289
v 0.055786 -0.075826 0.100289
v 0.055032 0.224174 0.113242
v 0.055032 -0.075826 0.113242
v 0.051311 0.224174 0.125671
v 0.051311 -0.075826 0.125671
v 0.044824 0.224174 0.136907
v 0.044823 -0.075826 0.136907
v 0.035920 0.224174 0.146345
v 0.035920 -0.075826 0.146345
v 0.025080 0.224174 0.153474
v 0.025079 -0.075826 0.153474
v 0.012888 0.224174 0.157912
v 0.012887 -0.075826 0.157912
v 0.000001 0.224174 0.159418
v 0.000001 -0.075826 0.159418
v -0.012886 0.224174 0.157912
v -0.012886 -0.075826 0.157912
v -0.025078 0.224174 0.153474
v -0.025078 -0.075826 0.153474
v -0.035918 0.224174 0.146344
v -0.035918 -0.075826 0.146344
v -0.044821 0.224174 0.136907
v -0.044822 -0.075826 0.136907
v -0.051309 0.224174 0.125671
v -0.051309 -0.075826 0.125671
v -0.055030 0.224174 0.113241
v -0.055030 -0.075826 0.113241
v -0.055784 0.224174 0.100289
v -0.055785 -0.075826 0.100289
v -0.053531 0.224174 0.087511
v -0.053532 -0.075826 0.087511
v -0.048392 0.224174 0.075598
v -0.048393 -0.075826 0.075598
v -0.040644 0.224174 0.065191
v -0.040645 -0.075826 0.065191
v -0.030705 0.224174 0.056851
v -0.030706 -0.075826 0.056851
v -0.019111 0.224174 0.051028
v -0.019111 -0.075826 0.051028
v -0.006486 -0.075826 0.048036
v 0.000001 0.224174 0.103538
v 0.000001 -0.075826 0.103538
vn -0.0582 0.0000 -0.9983
vn 0.0582 -0.0000 -0.9983
vn 0.2306 -0.0000 -0.9730
vn 0.4488 -0.0000 -0.8936
vn 0.6428 0.0000 -0.7660
vn 0.8021 0.0000 -0.5972
vn 0.8022 -0.0000 -0.5971
vn 0.9182 -0.0000 -0.3961
vn 0.9848 -0.0000 -0.1737
vn 0.9983 -0.0000 0.0582
vn 0.9983 0.0000 0.0581
vn 0.9580 -0.0000 0.2868
vn 0.8660 0.0000 0.5000
vn 0.8660 -0.0000 0.5001
vn 0.7274 -0.0000 0.6862
vn 0.5495 -0.0000 0.8355
vn 0.5494 -0.0000 0.8355
vn 0.3421 -0.0000 0.9397
vn 0.1161 -0.0000 0.9932
vn -0.1161 -0.0000 0.9932
vn -0.3421 -0.0000 0.9397
vn -0.5495 -0.0000 0.8355
vn -0.7274 -0.0000 0.6862
vn -0.7273 0.0000 0.6863
vn -0.8660 0.0000 0.5001
vn -0.8660 -0.0000 0.5000
vn -0.9580 -0.0000 0.2868
vn -0.9983 0.0000 0.0581
vn -0.9983 0.0000 0.0582
vn -0.9848 0.0000 -0.1736
vn -0.9182 0.0000 -0.3961
vn -0.8021 0.0000 -0.5972
vn -0.6428 0.0000 -0.7660
vn -0.4488 0.0000 -0.8936
vn -0.2306 0.0000 -0.9730
vn 0.0000 1.0000 0.0000
vn 0.0000 -1.0000 -0.0000
s off
f 1//1 2//1 3//1
f 3//2 2//2 4//2
f 2//2 5//2 4//2
f 4//3 5//3 6//3
f 4//3 6//3 7//3
f 7//4 6//4 8//4
f 7//4 8//4 9//4
f 9//5 8//5 10//5
f 9//5 10//5 11//5
f 11//6 10//6 12//6
f 11//7 12//7 13//7
f 13//8 12//8 14//8
f 13//8 14//8 15//8
f 15//9 14//9 16//9
f 15//9 16//9 17//9
f 17//10 16//10 18//10
f 17//11 18//11 19//11
f 19//12 18//12 20//12
f 19//12 20//12 21//12
f 21//13 20//13 22//13
f 21//14 22//14 23//14
f 23//15 22//15 24//15
f 23//15 24//15 25//15
f 25//16 24//16 26//16
f 25//17 26//17 27//17
f 27//18 26//18 28//18
f 27//18 28//18 29//18
f 29//19 28//19 30//19
f 29//19 30//19 31//19
f 31//20 30//20 32//20
f 31//20 32//20 33//20
f 33//21 32//21 34//21
f 33//21 34//21 35//21
f 35//22 34//22 36//22
f 35//22 36//22 37//22
f 37//23 36//23 38//23
f 37//24 38//24 39//24
f 39//25 38//25 40//25
f 39//26 40//26 41//26
f 41//27 40//27 42//27
f 41//27 42//27 43//27
f 43//28 42//28 44//28
f 43//29 44//29 45//29
f 45//30 44//30 46//30
f 45//30 46//30 47//30
f 47//31 46//31 48//31
f 47//31 48//31 49//31
f 49//32 48//32 50//32
f 49//32 50//32 51//32
f 51//33 50//33 52//33
f 51//33 52//33 53//33
f 53//34 52//34 54//34
f 53//34 54//34 55//34
f 55//35 54//35 1//35
f 55//35 1//35 56//35
f 56//1 1//1 3//1
f 2//36 1//36 57//36
f 8//36 6//36 57//36
f 57//36 6//36 5//36
f 57//36 5//36 2//36
f 14//36 12//36 57//36
f 57//36 12//36 10//36
f 57//36 10//36 8//36
f 20//36 18//36 57//36
f 57//36 18//36 16//36
f 57//36 16//36 14//36
f 26//36 24//36 57//36
f 57//36 24//36 22//36
f 57//36 22//36 20//36
f 32//36 30//36 57//36
f 57//36 30//36 28//36
f 57//36 28//36 26//36
f 38//36 36//36 57//36
f 57//36 36//36 34//36
f 57//36 34//36 32//36
f 44//36 42//36 57//36
f 57//36 42//36 40//36
f 57//36 40//36 38//36
f 50//36 48//36 57//36
f 57//36 48//36 46//36
f 57//36 46//36 44//36
f 1//36 54//36 57//36
f 57//36 54//36 52//36
f 57//36 52//36 50//36
f 3//37 4//37 58//37
f 53//37 55//37 58//37
f 58//37 55//37 56//37
f 58//37 56//37 3//37
f 47//37 49//37 58//37
f 58//37 49//37 51//37
f 58//37 51//37 53//37
f 41//37 43//37 58//37
f 58//37 43//37 45//37
f 58//37 45//37 47//37
f 35//37 37//37 58//37
f 58//37 37//37 39//37
f 58//37 39//37 41//37
f 29//37 31//37 58//37
f 58//37 31//37 33//37
f 58//37 33//37 35//37
f 23//37 25//37 58//37
f 58//37 25//37 27//37
f 58//37 27//37 29//37
f 17//37 19//37 58//37
f 58//37 19//37 21//37
f 58//37 21//37 23//37
f 11//37 13//37 58//37
f 58//37 13//37 15//37
f 58//37 15//37 17//37
f 4//37 7//37 58//37
f 58//37 7//37 9//37
f 58//37 9//37 11//37
