# Blender v3.6.8 OBJ File: 'm2_prototype.blend'
# www.blender.org
o 6-hull_visual_6-hull
v 0.082679 0.020263 -0.113910
v 0.080872 -0.284737 -0.131100
v 0.080872 0.020263 -0.131100
v 0.075531 -0.284737 -0.147538
v 0.075531 0.020263 -0.147538
v 0.066889 -0.284737 -0.162506
v 0.066889 0.020263 -0.162506
v 0.055323 -0.284737 -0.175351
v 0.055323 0.020263 -0.175351
v 0.041340 -0.284737 -0.185510
v 0.041340 0.020263 -0.185510
v 0.025550 -0.284737 -0.192541
v 0.025550 0.020263 -0.192540
v 0.008644 -0.284737 -0.196134
v 0.008644 0.020263 -0.196134
v -0.008640 -0.284737 -0.196134
v -0.008641 0.020263 -0.196134
v -0.025547 -0.284737 -0.192541
v -0.025547 0.020263 -0.192540
v -0.041337 -0.284737 -0.185510
v -0.041337 0.020263 -0.185510
v -0.055320 -0.284737 -0.175351
v -0.055320 0.020263 -0.175351
v -0.066885 -0.284737 -0.162506
v -0.066886 0.020263 -0.162506
v -0.075528 -0.284737 -0.147538
v -0.075528 0.020263 -0.147538
v -0.080869 -0.284737 -0.131100
v -0.080869 0.020263 -0.131100
v -0.082675 -0.284737 -0.113910
v -0.082675 0.020263 -0.113910
v -0.080869 -0.284737 -0.096721
v -0.080869 0.020263 -0.096720
v -0.075528 -0.284737 -0.080282
v -0.075528 0.020263 -0.080282
v -0.066885 -0.284737 -0.065314
v -0.066886 0.020263 -0.065314
v -0.055320 -0.284737 -0.052469
v -0.055320 0.020263 -0.052469
v -0.041337 -0.284737 -0.042310
v -0.041337 0.020263 -0.042310
v -0.025547 -0.284737 -0.035280
v -0.025547 0.020263 -0.035279
v -0.008641 -0.284737 -0.031686
v -0.008641 0.020263 -0.031686
v 0.008644 -0.284737 -0.031686
v 0.008644 0.020263 -0.031686
v 0.025550 -0.284737 -0.035280
v 0.025550 0.020263 -0.035279
v 0.041340 -0.284737 -0.042310
v 0.041340 0.020263 -0.042310
v 0.055323 -0.284737 -0.052469
v 0.055323 0.020263 -0.052469
v 0.066889 -0.284737 -0.065314
v 0.066889 0.020263 -0.065314
v 0.075531 -0.284737 -0.080282
v 0.075531 0.020263 -0.080282
v 0.080872 -0.284737 -0.096721
v 0.080872 0.020263 -0.096720
v 0.082679 -0.284737 -0.113910
v 0.000002 -0.284737 -0.113910
v 0.000002 0.020263 -0.113910
vn 0.9945 -0.0000 -0.1045
vn 0.9511 0.0000 -0.3090
vn 0.8660 0.0000 -0.5000
vn 0.7431 0.0000 -0.6691
vn 0.5878 0.0000 -0.8090
vn 0.4068 0.0000 -0.9135
vn 0.4067 0.0000 -0.9135
vn 0.2079 0.0000 -0.9782
vn 0.2079 0.0000 -0.9781
vn 0.0000 0.0000 -1.0000
vn -0.2079 -0.0000 -0.9782
vn -0.2079 0.0000 -0.9781
vn -0.4068 0.0000 -0.9135
vn -0.4067 0.0000 -0.9135
vn -0.5878 0.0000 -0.8090
vn -0.7432 0.0000 -0.6691
vn -0.7431 -0.0000 -0.6691
vn -0.8660 -0.0000 -0.5001
vn -0.8660 0.0000 -0.5000
vn -0.9511 0.0000 -0.3090
vn -0.9945 0.0000 -0.1045
vn -0.9945 0.0000 0.1045
vn -0.9511 -0.0000 0.3090
vn -0.8660 -0.0000 0.5001
vn -0.8660 -0.0000 0.5000
vn -0.7432 -0.0000 0.6691
vn -0.7431 -0.0000 0.6691
vn -0.5878 -0.0000 0.8090
vn -0.4067 -0.0000 0.9135
vn -0.4068 -0.0000 0.9135
vn -0.2079 -0.0000 0.9781
vn -0.2079 -0.0000 0.9782
vn 0.0000 -0.0000 1.0000
vn 0.2079 -0.0000 0.9781
vn 0.2079 -0.0000 0.9782
vn 0.4067 -0.0000 0.9135
vn 0.4068 -0.0000 0.9135
vn 0.5878 -0.0000 0.8090
vn 0.7431 -0.0000 0.6691
vn 0.8660 -0.0000 0.5000
vn 0.9511 0.0000 0.3090
vn 0.9945 -0.0000 0.1045
vn 0.0000 -1.0000 0.0000
vn -0.0000 1.0000 0.0000
s off
f 1//1 2//1 3//1
f 3//2 2//2 4//2
f 3//2 4//2 5//2
f 5//3 4//3 6//3
f 5//3 6//3 7//3
f 7//4 6//4 8//4
f 7//4 8//4 9//4
f 9//5 8//5 10//5
f 9//5 10//5 11//5
f 11//6 10//6 12//6
f 11//7 12//7 13//7
f 13//8 12//8 14//8
f 13//9 14//9 15//9
f 15//10 14//10 16//10
f 15//10 16//10 17//10
f 17//11 16//11 18//11
f 17//12 18//12 19//12
f 19//13 18//13 20//13
f 19//14 20//14 21//14
f 21//15 20//15 22//15
f 21//15 22//15 23//15
f 23//16 22//16 24//16
f 23//17 24//17 25//17
f 25//18 24//18 26//18
f 25//19 26//19 27//19
f 27//20 26//20 28//20
f 27//20 28//20 29//20
f 29//21 28//21 30//21
f 29//21 30//21 31//21
f 31//22 30//22 32//22
f 31//22 32//22 33//22
f 33//23 32//23 34//23
f 33//23 34//23 35//23
f 35//24 34//24 36//24
f 35//25 36//25 37//25
f 37//26 36//26 38//26
f 37//27 38//27 39//27
f 39//28 38//28 40//28
f 39//28 40//28 41//28
f 41//29 40//29 42//29
f 41//30 42//30 43//30
f 43//31 42//31 44//31
f 43//32 44//32 45//32
f 45//33 44//33 46//33
f 45//33 46//33 47//33
f 47//34 46//34 48//34
f 47//35 48//35 49//35
f 49//36 48//36 50//36
f 49//37 50//37 51//37
f 51//38 50//38 52//38
f 51//38 52//38 53//38
f 53//39 52//39 54//39
f 53//39 54//39 55//39
f 55//40 54//40 56//40
f 55//40 56//40 57//40
f 57//41 56//41 58//41
f 57//41 58//41 59//41
f 59//42 58//42 60//42
f 59//42 60//42 1//42
f 1//1 60//1 2//1
f 34//43 32//43 61//43
f 61//43 32//43 30//43
f 61//43 30//43 28//43
f 40//43 38//43 61//43
f 61//43 38//43 36//43
f 61//43 36//43 34//43
f 46//43 44//43 61//43
f 61//43 44//43 42//43
f 61//43 42//43 40//43
f 52//43 50//43 61//43
f 61//43 50//43 48//43
f 61//43 48//43 46//43
f 58//43 56//43 61//43
f 61//43 56//43 54//43
f 61//43 54//43 52//43
f 4//43 2//43 61//43
f 61//43 2//43 60//43
f 61//43 60//43 58//43
f 10//43 8//43 61//43
f 61//43 8//43 6//43
f 61//43 6//43 4//43
f 16//43 14//43 61//43
f 61//43 14//43 12//43
f 61//43 12//43 10//43
f 22//43 20//43 61//43
f 61//43 20//43 18//43
f 61//43 18//43 16//43
f 28//43 26//43 61//43
f 61//43 26//43 24//43
f 61//43 24//43 22//43
f 27//44 29//44 62//44
f 62//44 29//44 31//44
f 62//44 31//44 33//44
f 21//44 23//44 62//44
f 62//44 23//44 25//44
f 62//44 25//44 27//44
f 15//44 17//44 62//44
f 62//44 17//44 19//44
f 62//44 19//44 21//44
f 9//44 11//44 62//44
f 62//44 11//44 13//44
f 62//44 13//44 15//44
f 3//44 5//44 62//44
f 62//44 5//44 7//44
f 62//44 7//44 9//44
f 57//44 59//44 62//44
f 62//44 59//44 1//44
f 62//44 1//44 3//44
f 51//44 53//44 62//44
f 62//44 53//44 55//44
f 62//44 55//44 57//44
f 45//44 47//44 62//44
f 62//44 47//44 49//44
f 62//44 49//44 51//44
f 39//44 41//44 62//44
f 62//44 41//44 43//44
f 62//44 43//44 45//44
f 33//44 35//44 62//44
f 62//44 35//44 37//44
f 62//44 37//44 39//44
