# Blender v3.6.8 OBJ File: 'm2_prototype.blend'
# www.blender.org
o hullrack_visual_hullrack
v -0.224998 -0.203500 0.175590
v -0.085380 -0.184875 0.175590
v -0.224998 -0.163500 0.175590
v -0.085748 -0.183500 0.175590
v -0.085380 -0.182125 0.175590
v -0.080617 -0.182125 0.175590
v -0.047998 -0.186250 0.175590
v -0.081623 -0.181118 0.175590
v -0.082998 -0.180750 0.175590
v -0.049373 -0.185882 0.175590
v -0.050380 -0.184875 0.175590
v -0.050748 -0.183500 0.175590
v -0.050380 -0.182125 0.175590
v -0.049373 -0.181118 0.175590
v -0.047998 -0.180750 0.175590
v 0.225002 -0.163500 0.175590
v -0.046623 -0.181118 0.175590
v -0.045617 -0.182125 0.175590
v 0.225002 -0.203500 0.175590
v -0.082998 -0.186250 0.175590
v -0.084373 -0.185882 0.175590
v -0.046623 -0.185882 0.175590
v -0.045617 -0.184875 0.175590
v -0.084373 -0.181118 0.175590
v 0.083002 -0.186250 0.175590
v 0.081627 -0.185882 0.175590
v 0.048002 -0.180750 0.175590
v 0.080620 -0.184875 0.175590
v 0.080252 -0.183500 0.175590
v 0.050383 -0.184875 0.175590
v 0.049377 -0.185882 0.175590
v 0.048002 -0.186250 0.175590
v -0.080248 -0.183500 0.175590
v -0.080617 -0.184875 0.175590
v -0.081623 -0.185882 0.175590
v 0.046627 -0.185882 0.175590
v 0.045620 -0.184875 0.175590
v -0.045248 -0.183500 0.175590
v 0.045252 -0.183500 0.175590
v 0.045620 -0.182125 0.175590
v 0.085383 -0.184875 0.175590
v 0.085752 -0.183500 0.175590
v 0.085383 -0.182125 0.175590
v 0.084377 -0.181118 0.175590
v 0.049377 -0.181118 0.175590
v 0.050383 -0.182125 0.175590
v 0.050752 -0.183500 0.175590
v 0.080620 -0.182125 0.175590
v 0.081627 -0.181118 0.175590
v 0.083002 -0.180750 0.175590
v 0.084377 -0.185882 0.175590
v 0.046627 -0.181118 0.175590
v 0.221002 -0.203500 0.138590
v 0.225002 -0.203500 0.138590
v 0.221002 -0.203500 0.171590
v 0.225002 -0.203500 0.175590
v -0.220998 -0.203500 0.171590
v -0.220998 -0.203500 0.138590
v -0.224998 -0.203500 0.138590
v -0.080617 -0.184875 0.171590
v -0.047998 -0.180750 0.171590
v -0.081623 -0.185882 0.171590
v -0.082998 -0.186250 0.171590
v -0.084373 -0.181118 0.171590
v -0.220998 -0.163500 0.171590
v -0.082998 -0.180750 0.171590
v 0.221002 -0.163500 0.171590
v -0.085380 -0.184875 0.171590
v -0.085748 -0.183500 0.171590
v -0.085380 -0.182125 0.171590
v -0.049373 -0.181118 0.171590
v -0.050380 -0.182125 0.171590
v -0.050748 -0.183500 0.171590
v -0.050380 -0.184875 0.171590
v -0.049373 -0.185882 0.171590
v -0.047998 -0.186250 0.171590
v -0.046623 -0.185882 0.171590
v -0.045617 -0.184875 0.171590
v 0.045620 -0.184875 0.171590
v 0.045252 -0.183500 0.171590
v -0.045248 -0.183500 0.171590
v 0.045620 -0.182125 0.171590
v -0.045617 -0.182125 0.171590
v -0.046623 -0.181118 0.171590
v 0.083002 -0.180750 0.171590
v 0.081627 -0.181118 0.171590
v 0.048002 -0.186250 0.171590
v 0.080620 -0.182125 0.171590
v 0.080252 -0.183500 0.171590
v 0.050383 -0.182125 0.171590
v 0.049377 -0.181118 0.171590
v 0.048002 -0.180750 0.171590
v 0.046627 -0.181118 0.171590
v -0.080248 -0.183500 0.171590
v -0.080617 -0.182125 0.171590
v -0.081623 -0.181118 0.171590
v -0.084373 -0.185882 0.171590
v 0.049377 -0.185882 0.171590
v 0.050383 -0.184875 0.171590
v 0.050752 -0.183500 0.171590
v 0.085383 -0.182125 0.171590
v 0.085752 -0.183500 0.171590
v 0.085383 -0.184875 0.171590
v 0.084377 -0.185882 0.171590
v 0.084377 -0.181118 0.171590
v 0.080620 -0.184875 0.171590
v 0.081627 -0.185882 0.171590
v 0.083002 -0.186250 0.171590
v 0.046627 -0.185882 0.171590
v -0.220998 -0.163500 0.138590
v -0.224998 -0.163500 0.138590
v -0.224998 -0.163500 0.175590
v 0.221002 -0.163500 0.138590
v 0.225002 -0.163500 0.138590
v 0.221002 -0.173500 0.128590
v 0.221002 -0.173500 0.145840
v 0.221002 -0.168500 0.129930
v 0.221002 -0.172125 0.146208
v 0.221002 -0.164840 0.133590
v 0.221002 -0.203500 0.138590
v 0.221002 -0.195882 0.147215
v 0.221002 -0.202160 0.133590
v 0.221002 -0.194875 0.146208
v 0.221002 -0.198500 0.129930
v 0.221002 -0.193500 0.145840
v 0.221002 -0.193500 0.128590
v 0.221002 -0.192125 0.146208
v 0.221002 -0.191118 0.147215
v 0.221002 -0.171118 0.147215
v 0.221002 -0.170750 0.148590
v 0.221002 -0.171118 0.149965
v 0.221002 -0.172125 0.150972
v 0.221002 -0.193500 0.151340
v 0.221002 -0.192125 0.150972
v 0.221002 -0.191118 0.149965
v 0.221002 -0.173500 0.151340
v 0.221002 -0.174875 0.150972
v 0.221002 -0.175882 0.149965
v 0.221002 -0.190750 0.148590
v 0.221002 -0.176250 0.148590
v 0.221002 -0.175882 0.147215
v 0.221002 -0.174875 0.146208
v 0.221002 -0.194875 0.150972
v 0.221002 -0.195882 0.149965
v 0.221002 -0.196250 0.148590
v 0.225002 -0.172125 0.150972
v 0.225002 -0.171118 0.149965
v 0.225002 -0.194875 0.146208
v 0.225002 -0.195882 0.147215
v 0.225002 -0.196250 0.148590
v 0.225002 -0.195882 0.149965
v 0.225002 -0.194875 0.150972
v 0.225002 -0.193500 0.151340
v 0.225002 -0.192125 0.150972
v 0.225002 -0.176250 0.148590
v 0.225002 -0.175882 0.149965
v 0.225002 -0.174875 0.150972
v 0.225002 -0.173500 0.151340
v 0.225002 -0.202160 0.133590
v 0.225002 -0.198500 0.129930
v 0.225002 -0.193500 0.145840
v 0.225002 -0.193500 0.128590
v 0.225002 -0.192125 0.146208
v 0.225002 -0.173500 0.128590
v 0.225002 -0.191118 0.147215
v 0.225002 -0.170750 0.148590
v 0.225002 -0.171118 0.147215
v 0.225002 -0.164840 0.133590
v 0.225002 -0.172125 0.146208
v 0.225002 -0.168500 0.129930
v 0.225002 -0.173500 0.145840
v 0.225002 -0.174875 0.146208
v 0.225002 -0.175882 0.147215
v 0.225002 -0.190750 0.148590
v 0.225002 -0.191118 0.149965
v -0.224998 -0.193500 0.128590
v -0.224998 -0.173500 0.128590
v -0.220998 -0.193500 0.128590
v -0.220998 -0.173500 0.128590
v -0.224998 -0.170750 0.148590
v -0.224998 -0.194875 0.150972
v -0.224998 -0.195882 0.149965
v -0.224998 -0.203500 0.138590
v -0.224998 -0.171119 0.149965
v -0.224998 -0.172125 0.150972
v -0.224998 -0.173500 0.151340
v -0.224998 -0.196250 0.148590
v -0.224998 -0.195882 0.147215
v -0.224998 -0.202160 0.133590
v -0.224998 -0.194875 0.146208
v -0.224998 -0.198500 0.129930
v -0.224998 -0.193500 0.145840
v -0.224998 -0.174875 0.146208
v -0.224998 -0.164840 0.133590
v -0.224998 -0.191119 0.147215
v -0.224998 -0.168500 0.129930
v -0.224998 -0.192125 0.146208
v -0.224998 -0.173500 0.145840
v -0.224998 -0.172125 0.146208
v -0.224998 -0.171119 0.147215
v -0.224998 -0.174875 0.150972
v -0.224998 -0.190750 0.148590
v -0.224998 -0.191119 0.149965
v -0.224998 -0.192125 0.150972
v -0.224998 -0.193500 0.151340
v -0.224998 -0.175882 0.149965
v -0.224998 -0.176250 0.148590
v -0.224998 -0.175882 0.147215
v -0.220998 -0.194875 0.150972
v -0.220998 -0.193500 0.151340
v -0.220998 -0.172125 0.150972
v -0.220998 -0.171119 0.149965
v -0.220998 -0.194875 0.146208
v -0.220998 -0.195882 0.147215
v -0.220998 -0.196250 0.148590
v -0.220998 -0.195882 0.149965
v -0.220998 -0.170750 0.148590
v -0.220998 -0.171119 0.147215
v -0.220998 -0.164840 0.133590
v -0.220998 -0.172125 0.146208
v -0.220998 -0.192125 0.150972
v -0.220998 -0.176250 0.148590
v -0.220998 -0.175882 0.149965
v -0.220998 -0.174875 0.150972
v -0.220998 -0.173500 0.151340
v -0.220998 -0.202160 0.133590
v -0.220998 -0.198500 0.129930
v -0.220998 -0.193500 0.145840
v -0.220998 -0.192125 0.146208
v -0.220998 -0.191119 0.147215
v -0.220998 -0.168500 0.129930
v -0.220998 -0.191119 0.149965
v -0.220998 -0.190750 0.148590
v -0.220998 -0.175882 0.147215
v -0.220998 -0.174875 0.146208
v -0.220998 -0.173500 0.145840
vn 0.0000 0.0000 1.0000
vn 0.0000 -1.0000 0.0000
vn 0.0000 0.0000 -1.0000
vn 0.0000 0.0003 -1.0000
vn -0.0000 -0.0003 -1.0000
vn 0.0000 1.0000 0.0000
vn -1.0000 0.0000 0.0000
vn 1.0000 0.0000 0.0000
vn 0.0000 -0.9660 0.2585
vn 0.0000 -0.7071 0.7071
vn 0.0000 -0.2585 0.9660
vn 0.0000 0.2585 0.9660
vn 0.0000 0.7071 0.7071
vn 0.0000 0.9660 0.2585
vn -0.0000 0.9659 -0.2589
vn 0.0000 0.9660 -0.2585
vn 0.0000 0.7071 -0.7071
vn 0.0000 0.2585 -0.9660
vn 0.0000 -0.2585 -0.9660
vn 0.0000 -0.7071 -0.7071
vn 0.0000 -0.9660 -0.2585
vn -0.0000 -0.9659 -0.2589
vn 0.0000 0.9659 0.2589
vn 0.0000 -0.2589 -0.9659
vn 0.0000 0.2589 -0.9659
vn 0.0000 -0.7075 0.7068
vn 0.0000 -0.7072 0.7070
vn 0.0000 -0.9659 0.2589
vn 0.0000 -0.9659 0.2587
vn 0.0000 -0.9658 -0.2592
vn 0.0000 -0.7075 -0.7068
vn -0.0000 -0.7072 -0.7070
vn 0.0000 0.9660 0.2586
vn 0.0000 -0.9660 0.2587
vn -0.2585 0.9660 0.0000
vn -0.7071 0.7071 -0.0000
vn -0.7075 0.7067 0.0000
vn -0.9658 0.2592 0.0000
vn -0.9659 0.2589 0.0000
vn -0.9658 -0.2592 0.0000
vn -0.7071 -0.7071 0.0000
vn -0.7075 -0.7068 0.0000
vn -0.2585 -0.9660 0.0000
vn 0.2585 -0.9660 0.0000
vn 0.7071 -0.7071 0.0000
vn 0.9659 -0.2589 -0.0000
vn 0.9660 -0.2585 0.0000
vn 0.9660 0.2585 0.0000
vn 0.7071 0.7071 0.0000
vn 0.2585 0.9660 0.0000
vn -0.7075 0.7068 0.0000
vn -0.7075 -0.7067 0.0000
vn -0.9660 0.2587 0.0000
vn -0.9659 -0.2589 -0.0000
vn -0.9659 0.2587 0.0000
s off
f 1//1 2//1 3//1
f 3//1 2//1 4//1
f 3//1 4//1 5//1
f 6//1 7//1 8//1
f 8//1 7//1 9//1
f 7//1 10//1 9//1
f 9//1 10//1 11//1
f 9//1 11//1 12//1
f 13//1 14//1 3//1
f 3//1 14//1 15//1
f 3//1 15//1 16//1
f 16//1 15//1 17//1
f 16//1 17//1 18//1
f 19//1 20//1 1//1
f 1//1 20//1 21//1
f 1//1 21//1 2//1
f 7//1 19//1 22//1
f 22//1 19//1 23//1
f 5//1 24//1 3//1
f 3//1 24//1 9//1
f 3//1 9//1 13//1
f 13//1 9//1 12//1
f 25//1 26//1 27//1
f 27//1 26//1 28//1
f 27//1 28//1 29//1
f 30//1 31//1 19//1
f 19//1 31//1 32//1
f 19//1 32//1 23//1
f 6//1 33//1 7//1
f 7//1 33//1 34//1
f 7//1 34//1 19//1
f 19//1 34//1 35//1
f 19//1 35//1 20//1
f 32//1 36//1 23//1
f 23//1 36//1 37//1
f 23//1 37//1 38//1
f 38//1 37//1 39//1
f 38//1 39//1 18//1
f 18//1 39//1 40//1
f 41//1 19//1 42//1
f 42//1 19//1 16//1
f 42//1 16//1 43//1
f 43//1 16//1 44//1
f 27//1 45//1 25//1
f 25//1 45//1 46//1
f 25//1 46//1 47//1
f 29//1 48//1 27//1
f 27//1 48//1 49//1
f 27//1 49//1 50//1
f 41//1 51//1 19//1
f 19//1 51//1 25//1
f 19//1 25//1 30//1
f 30//1 25//1 47//1
f 40//1 52//1 18//1
f 18//1 52//1 27//1
f 18//1 27//1 16//1
f 16//1 27//1 50//1
f 16//1 50//1 44//1
f 53//2 54//2 55//2
f 55//2 54//2 56//2
f 55//2 56//2 57//2
f 57//2 56//2 1//2
f 57//2 1//2 58//2
f 58//2 1//2 59//2
f 60//3 61//3 62//3
f 62//3 61//3 63//3
f 64//3 65//3 66//3
f 66//3 65//3 67//3
f 68//3 57//3 69//3
f 69//3 57//3 65//3
f 69//3 65//3 70//3
f 70//3 65//3 64//3
f 61//4 71//4 63//4
f 63//3 71//3 72//3
f 63//3 72//3 73//3
f 74//3 75//3 57//3
f 57//3 75//3 76//3
f 57//3 76//3 55//3
f 55//3 76//3 77//3
f 55//3 77//3 78//3
f 79//3 78//3 80//3
f 80//3 78//3 81//3
f 80//3 81//3 82//3
f 82//3 81//3 83//3
f 61//3 67//3 84//3
f 84//3 67//3 83//3
f 85//3 86//3 87//3
f 87//3 86//3 88//3
f 87//3 88//3 89//3
f 90//3 91//3 67//3
f 67//3 91//3 92//3
f 67//3 92//3 83//3
f 83//3 92//3 93//3
f 83//3 93//3 82//3
f 60//3 94//3 61//3
f 61//3 94//3 95//3
f 61//3 95//3 67//3
f 67//3 95//3 96//3
f 67//3 96//3 66//3
f 68//3 97//3 57//3
f 57//3 97//3 63//3
f 57//3 63//3 74//3
f 74//3 63//3 73//3
f 87//5 98//5 85//5
f 85//3 98//3 99//3
f 85//3 99//3 100//3
f 101//3 67//3 102//3
f 102//3 67//3 55//3
f 102//3 55//3 103//3
f 103//3 55//3 104//3
f 101//3 105//3 67//3
f 67//3 105//3 85//3
f 67//3 85//3 90//3
f 90//3 85//3 100//3
f 89//3 106//3 87//3
f 87//3 106//3 107//3
f 87//3 107//3 108//3
f 79//3 109//3 78//3
f 78//3 109//3 87//3
f 78//3 87//3 55//3
f 55//3 87//3 108//3
f 55//3 108//3 104//3
f 110//6 111//6 65//6
f 65//6 111//6 112//6
f 65//6 112//6 67//6
f 67//6 112//6 16//6
f 67//6 16//6 113//6
f 113//6 16//6 114//6
f 115//7 116//7 117//7
f 117//7 116//7 118//7
f 117//7 118//7 119//7
f 119//7 118//7 113//7
f 120//7 121//7 122//7
f 122//7 121//7 123//7
f 122//7 123//7 124//7
f 124//7 123//7 125//7
f 124//7 125//7 126//7
f 126//7 125//7 115//7
f 115//7 125//7 127//7
f 115//7 127//7 128//7
f 118//7 129//7 113//7
f 113//7 129//7 130//7
f 113//7 130//7 67//7
f 67//7 130//7 131//7
f 67//7 131//7 132//7
f 133//7 55//7 134//7
f 134//7 55//7 67//7
f 134//7 67//7 135//7
f 132//7 136//7 67//7
f 67//7 136//7 137//7
f 67//7 137//7 135//7
f 135//7 137//7 138//7
f 135//7 138//7 139//7
f 139//7 138//7 140//7
f 139//7 140//7 128//7
f 128//7 140//7 141//7
f 128//7 141//7 115//7
f 115//7 141//7 142//7
f 115//7 142//7 116//7
f 133//7 143//7 55//7
f 55//7 143//7 144//7
f 55//7 144//7 120//7
f 120//7 144//7 145//7
f 120//7 145//7 121//7
f 146//8 147//8 16//8
f 148//8 149//8 54//8
f 54//8 149//8 150//8
f 54//8 150//8 56//8
f 150//8 151//8 56//8
f 56//8 151//8 152//8
f 56//8 152//8 153//8
f 16//8 147//8 114//8
f 154//8 155//8 153//8
f 153//8 155//8 156//8
f 153//8 156//8 56//8
f 56//8 156//8 157//8
f 56//8 157//8 16//8
f 16//8 157//8 158//8
f 16//8 158//8 146//8
f 54//8 159//8 148//8
f 148//8 159//8 160//8
f 148//8 160//8 161//8
f 161//8 160//8 162//8
f 161//8 162//8 163//8
f 163//8 162//8 164//8
f 163//8 164//8 165//8
f 147//8 166//8 114//8
f 114//8 166//8 167//8
f 114//8 167//8 168//8
f 168//8 167//8 169//8
f 168//8 169//8 170//8
f 170//8 169//8 171//8
f 170//8 171//8 164//8
f 164//8 171//8 172//8
f 164//8 172//8 165//8
f 165//8 172//8 173//8
f 165//8 173//8 174//8
f 174//8 173//8 155//8
f 174//8 155//8 175//8
f 175//8 155//8 154//8
f 126//3 115//3 162//3
f 162//3 115//3 164//3
f 166//9 130//9 167//9
f 167//9 130//9 129//9
f 167//10 129//10 169//10
f 169//10 129//10 118//10
f 169//11 118//11 171//11
f 171//11 118//11 116//11
f 171//12 116//12 172//12
f 172//12 116//12 142//12
f 172//13 142//13 173//13
f 173//13 142//13 141//13
f 173//14 141//14 155//14
f 155//14 141//14 140//14
f 155//15 140//15 156//15
f 156//16 140//16 138//16
f 156//17 138//17 157//17
f 157//17 138//17 137//17
f 157//18 137//18 158//18
f 158//18 137//18 136//18
f 158//19 136//19 146//19
f 146//19 136//19 132//19
f 146//20 132//20 147//20
f 147//20 132//20 131//20
f 147//21 131//21 166//21
f 166//22 131//22 130//22
f 174//9 139//9 165//9
f 165//9 139//9 128//9
f 165//10 128//10 163//10
f 163//10 128//10 127//10
f 163//11 127//11 161//11
f 161//11 127//11 125//11
f 161//12 125//12 148//12
f 148//12 125//12 123//12
f 148//13 123//13 149//13
f 149//13 123//13 121//13
f 149//23 121//23 150//23
f 150//14 121//14 145//14
f 150//15 145//15 151//15
f 151//15 145//15 144//15
f 151//17 144//17 152//17
f 152//17 144//17 143//17
f 152//18 143//18 153//18
f 153//18 143//18 133//18
f 153//19 133//19 154//19
f 154//19 133//19 134//19
f 154//20 134//20 175//20
f 175//20 134//20 135//20
f 175//21 135//21 174//21
f 174//22 135//22 139//22
f 54//22 53//22 122//22
f 54//22 122//22 159//22
f 159//20 122//20 124//20
f 159//20 124//20 160//20
f 160//24 124//24 126//24
f 160//24 126//24 162//24
f 164//25 115//25 117//25
f 164//25 117//25 170//25
f 170//17 117//17 119//17
f 170//17 119//17 168//17
f 168//15 119//15 113//15
f 168//15 113//15 114//15
f 176//3 177//3 178//3
f 178//3 177//3 179//3
f 112//7 111//7 180//7
f 1//7 181//7 182//7
f 1//7 182//7 183//7
f 180//7 184//7 112//7
f 112//7 184//7 185//7
f 112//7 185//7 186//7
f 182//7 187//7 183//7
f 183//7 187//7 188//7
f 183//7 188//7 189//7
f 189//7 188//7 190//7
f 189//7 190//7 191//7
f 191//7 190//7 192//7
f 193//7 194//7 195//7
f 195//7 194//7 196//7
f 195//7 196//7 197//7
f 197//7 196//7 177//7
f 197//7 177//7 192//7
f 192//7 177//7 176//7
f 192//7 176//7 191//7
f 193//7 198//7 194//7
f 194//7 198//7 199//7
f 194//7 199//7 111//7
f 111//7 199//7 200//7
f 111//7 200//7 180//7
f 201//7 202//7 186//7
f 186//7 202//7 203//7
f 186//7 203//7 112//7
f 112//7 203//7 204//7
f 112//7 204//7 1//7
f 1//7 204//7 205//7
f 1//7 205//7 181//7
f 201//7 206//7 202//7
f 202//7 206//7 207//7
f 202//7 207//7 195//7
f 195//7 207//7 208//7
f 195//7 208//7 193//7
f 57//8 209//8 210//8
f 211//8 212//8 65//8
f 213//8 214//8 58//8
f 58//8 214//8 215//8
f 58//8 215//8 57//8
f 57//8 215//8 216//8
f 57//8 216//8 209//8
f 65//8 212//8 110//8
f 212//8 217//8 110//8
f 110//8 217//8 218//8
f 110//8 218//8 219//8
f 219//8 218//8 220//8
f 221//8 222//8 210//8
f 210//8 222//8 223//8
f 210//8 223//8 57//8
f 57//8 223//8 224//8
f 57//8 224//8 65//8
f 65//8 224//8 225//8
f 65//8 225//8 211//8
f 58//8 226//8 213//8
f 213//8 226//8 227//8
f 213//8 227//8 228//8
f 228//8 227//8 178//8
f 228//8 178//8 229//8
f 229//8 178//8 179//8
f 229//8 179//8 230//8
f 230//8 179//8 231//8
f 230//8 231//8 219//8
f 221//8 232//8 222//8
f 222//8 232//8 233//8
f 222//8 233//8 234//8
f 234//8 233//8 230//8
f 234//8 230//8 235//8
f 235//8 230//8 219//8
f 235//8 219//8 236//8
f 236//8 219//8 220//8
f 207//14 222//14 208//14
f 208//23 222//23 234//23
f 208//13 234//13 193//13
f 193//13 234//13 235//13
f 193//12 235//12 198//12
f 198//12 235//12 236//12
f 198//11 236//11 199//11
f 199//11 236//11 220//11
f 199//26 220//26 200//26
f 200//27 220//27 218//27
f 200//28 218//28 180//28
f 180//29 218//29 217//29
f 180//30 217//30 184//30
f 184//22 217//22 212//22
f 184//31 212//31 185//31
f 185//32 212//32 211//32
f 185//19 211//19 186//19
f 186//19 211//19 225//19
f 186//18 225//18 201//18
f 201//18 225//18 224//18
f 201//17 224//17 206//17
f 206//17 224//17 223//17
f 206//16 223//16 207//16
f 207//15 223//15 222//15
f 187//14 215//14 188//14
f 188//33 215//33 214//33
f 188//13 214//13 190//13
f 190//13 214//13 213//13
f 190//12 213//12 192//12
f 192//12 213//12 228//12
f 192//11 228//11 197//11
f 197//11 228//11 229//11
f 197//26 229//26 195//26
f 195//27 229//27 230//27
f 195//28 230//28 202//28
f 202//34 230//34 233//34
f 202//30 233//30 203//30
f 203//22 233//22 232//22
f 203//31 232//31 204//31
f 204//32 232//32 221//32
f 204//19 221//19 205//19
f 205//19 221//19 210//19
f 205//18 210//18 181//18
f 181//18 210//18 209//18
f 181//17 209//17 182//17
f 182//17 209//17 216//17
f 182//15 216//15 187//15
f 187//16 216//16 215//16
f 58//22 59//22 189//22
f 58//22 189//22 226//22
f 226//20 189//20 191//20
f 226//20 191//20 227//20
f 227//24 191//24 176//24
f 227//24 176//24 178//24
f 179//25 177//25 196//25
f 179//25 196//25 231//25
f 231//17 196//17 194//17
f 231//17 194//17 219//17
f 219//15 194//15 111//15
f 219//15 111//15 110//15
f 63//35 20//35 62//35
f 62//35 20//35 35//35
f 62//36 35//36 60//36
f 60//37 35//37 34//37
f 60//38 34//38 94//38
f 94//39 34//39 33//39
f 94//40 33//40 95//40
f 95//40 33//40 6//40
f 95//41 6//41 96//41
f 96//42 6//42 8//42
f 96//43 8//43 66//43
f 66//43 8//43 9//43
f 66//44 9//44 64//44
f 64//44 9//44 24//44
f 64//45 24//45 70//45
f 70//45 24//45 5//45
f 70//46 5//46 69//46
f 69//47 5//47 4//47
f 69//48 4//48 68//48
f 68//48 4//48 2//48
f 68//49 2//49 97//49
f 97//49 2//49 21//49
f 97//50 21//50 63//50
f 63//50 21//50 20//50
f 108//35 25//35 104//35
f 104//35 25//35 51//35
f 104//36 51//36 103//36
f 103//51 51//51 41//51
f 103//38 41//38 102//38
f 102//39 41//39 42//39
f 102//40 42//40 101//40
f 101//40 42//40 43//40
f 101//41 43//41 105//41
f 105//52 43//52 44//52
f 105//43 44//43 85//43
f 85//43 44//43 50//43
f 85//44 50//44 86//44
f 86//44 50//44 49//44
f 86//45 49//45 88//45
f 88//45 49//45 48//45
f 88//46 48//46 89//46
f 89//47 48//47 29//47
f 89//48 29//48 106//48
f 106//48 29//48 28//48
f 106//49 28//49 107//49
f 107//49 28//49 26//49
f 107//50 26//50 108//50
f 108//50 26//50 25//50
f 76//35 7//35 77//35
f 77//35 7//35 22//35
f 77//36 22//36 78//36
f 78//51 22//51 23//51
f 78//39 23//39 81//39
f 81//53 23//53 38//53
f 81//54 38//54 83//54
f 83//54 38//54 18//54
f 83//41 18//41 84//41
f 84//42 18//42 17//42
f 84//43 17//43 61//43
f 61//43 17//43 15//43
f 61//44 15//44 71//44
f 71//44 15//44 14//44
f 71//45 14//45 72//45
f 72//45 14//45 13//45
f 72//47 13//47 73//47
f 73//47 13//47 12//47
f 73//48 12//48 74//48
f 74//48 12//48 11//48
f 74//49 11//49 75//49
f 75//49 11//49 10//49
f 75//50 10//50 76//50
f 76//50 10//50 7//50
f 87//35 32//35 98//35
f 98//35 32//35 31//35
f 98//36 31//36 99//36
f 99//51 31//51 30//51
f 99//39 30//39 100//39
f 100//55 30//55 47//55
f 100//54 47//54 90//54
f 90//54 47//54 46//54
f 90//41 46//41 91//41
f 91//42 46//42 45//42
f 91//43 45//43 92//43
f 92//43 45//43 27//43
f 92//44 27//44 93//44
f 93//44 27//44 52//44
f 93//45 52//45 82//45
f 82//45 52//45 40//45
f 82//47 40//47 80//47
f 80//47 40//47 39//47
f 80//48 39//48 79//48
f 79//48 39//48 37//48
f 79//49 37//49 109//49
f 109//49 37//49 36//49
f 109//50 36//50 87//50
f 87//50 36//50 32//50
