# Blender v3.6.8 OBJ File: 'propeller-case.blend'
# www.blender.org
o duct_hydro
v -0.045423 -0.025546 0.111000
v -0.002099 -0.025546 0.111000
v -0.002099 0.025546 0.111000
v -0.045423 0.025546 0.111000
v 0.068000 0.094685 0.043603
v 0.068000 0.091143 0.014197
v 0.068000 0.090924 -0.018118
v 0.068000 0.104067 -0.006029
v 0.068000 0.102428 0.019364
v 0.068000 0.086963 -0.057833
v 0.068000 0.099504 -0.031067
v 0.068000 -0.091547 0.012069
v 0.068000 -0.094685 0.043603
v 0.068000 -0.102428 0.019365
v 0.068000 -0.104067 -0.006029
v 0.068000 -0.097737 -0.037161
v 0.068000 -0.091143 -0.014197
v 0.068000 -0.084344 0.037347
v 0.068000 -0.081300 0.065242
v 0.068000 -0.071774 0.057942
v 0.068000 -0.033096 0.086102
v 0.068000 -0.041082 0.095804
v 0.068000 -0.054292 0.074573
v 0.068000 -0.063072 0.082996
v 0.068000 0.054292 0.074573
v 0.068000 0.041081 0.095804
v 0.068000 0.033096 0.086103
v 0.068000 0.012661 0.103663
v 0.068000 0.000002 0.092767
v 0.068000 -0.016676 0.102894
v 0.068000 0.084344 0.037347
v 0.068000 0.081301 0.065243
v 0.068000 0.071774 0.057942
v 0.068000 0.063072 0.082996
v 0.068000 -0.084344 -0.037347
v 0.068000 -0.081191 -0.065439
v 0.068000 -0.071774 -0.057942
v 0.068000 -0.028475 -0.100252
v 0.068000 -0.033096 -0.086102
v 0.068000 -0.054292 -0.074573
v 0.068000 -0.057097 -0.087596
v 0.068000 0.034281 -0.098435
v 0.068000 0.044073 -0.081034
v 0.068000 0.021551 -0.089692
v 0.068000 0.002758 -0.104580
v 0.068000 -0.006116 -0.092193
v 0.068000 0.078736 -0.048057
v 0.068000 0.062344 -0.083942
v 0.068000 0.063580 -0.066831
v -0.024000 -0.025546 0.105964
v -0.002100 -0.025318 0.105131
v -0.002099 -0.025546 0.111000
v -0.045423 -0.025546 0.111000
v -0.045423 -0.025546 0.096000
v -0.024000 -0.025546 0.096000
v -0.002099 0.025546 0.111000
v -0.002100 -0.025318 0.105131
v -0.002099 -0.000000 0.107907
v -0.002100 0.025430 0.105111
v -0.002099 -0.025546 0.111000
v -0.045423 0.025546 0.111000
v -0.002100 0.025430 0.105111
v -0.024000 0.025546 0.105964
v -0.024000 0.025546 0.096000
v -0.045423 0.025546 0.096000
v -0.024000 -0.025546 0.096000
v -0.024000 -0.005178 0.092523
v -0.024000 -0.036773 0.084599
v -0.023998 -0.028011 -0.105251
v -0.024000 -0.036774 -0.084599
v -0.024000 -0.028000 -0.095000
v -0.024000 0.019468 0.090168
v -0.024000 0.049258 0.098197
v -0.024000 0.042257 0.081998
v -0.024000 0.028000 -0.095000
v -0.024000 0.004973 -0.093439
v -0.024000 0.016097 -0.090732
v -0.024000 -0.004971 -0.092942
v -0.024000 -0.005000 0.096000
v -0.024000 0.036773 -0.084599
v -0.024000 0.044182 -0.099915
v -0.023998 0.028011 -0.105251
v -0.024000 0.025546 0.096000
v -0.024000 0.025546 0.105964
v -0.024000 0.004949 0.093250
v -0.024000 0.094651 0.054560
v -0.024000 0.094774 -0.055288
v -0.024000 0.091838 -0.009089
v -0.024000 0.089913 0.022035
v -0.024000 -0.106987 -0.022113
v -0.024000 -0.109169 0.004195
v -0.024000 -0.104975 0.030261
v -0.024000 -0.094310 -0.056221
v -0.024000 -0.094650 0.054562
v -0.024000 -0.091707 -0.009935
v -0.024000 -0.089674 0.024143
v -0.024000 -0.078796 0.075673
v -0.024000 -0.074299 0.054668
v -0.024000 -0.049258 0.098198
v -0.024000 -0.057517 0.072117
v -0.024000 -0.025546 0.105964
v -0.024000 -0.085964 -0.033454
v -0.024000 -0.068759 -0.085018
v -0.024000 -0.074299 -0.054669
v -0.024000 -0.057517 -0.072117
v -0.024000 -0.044182 -0.099914
v -0.024000 0.057517 -0.072117
v -0.024000 0.069567 -0.084425
v -0.024000 0.074299 -0.054668
v -0.024000 0.085964 -0.033454
v -0.024000 0.062135 0.068179
v -0.024000 0.078796 0.075674
v -0.024000 0.077732 0.049664
v -0.024000 0.104975 0.030261
v -0.024000 0.106987 -0.022113
v -0.024000 0.109169 0.004195
v 0.068000 0.012661 0.103663
v -0.002100 0.025430 0.105111
v -0.002099 -0.000000 0.107907
v 0.068000 0.041081 0.095804
v -0.024000 0.049258 0.098197
v 0.068000 0.063072 0.082996
v -0.024000 0.078796 0.075674
v 0.068000 0.081301 0.065243
v -0.024000 0.094651 0.054560
v 0.068000 0.094685 0.043603
v -0.024000 0.104975 0.030261
v 0.068000 0.102428 0.019364
v -0.024000 0.109169 0.004195
v 0.068000 0.104067 -0.006029
v -0.024000 0.106987 -0.022113
v 0.068000 0.099504 -0.031067
v -0.024000 0.094774 -0.055288
v 0.068000 0.086963 -0.057833
v -0.024000 0.044182 -0.099915
v -0.024000 0.069567 -0.084425
v 0.068000 0.062344 -0.083942
v 0.068000 0.034281 -0.098435
v 0.068000 0.002758 -0.104580
v -0.023993 0.010379 -0.108758
v -0.023998 0.028011 -0.105251
v -0.024000 0.025546 0.105964
v 0.068000 -0.016676 0.102894
v -0.023997 -0.015164 -0.107982
v 0.068000 -0.028475 -0.100252
v 0.068000 -0.057097 -0.087596
v -0.024000 -0.044182 -0.099914
v -0.024000 -0.068759 -0.085018
v 0.068000 -0.081191 -0.065439
v -0.024000 -0.094310 -0.056221
v 0.068000 -0.097737 -0.037161
v -0.024000 -0.106987 -0.022113
v 0.068000 -0.104067 -0.006029
v -0.024000 -0.109169 0.004195
v 0.068000 -0.102428 0.019365
v -0.024000 -0.104975 0.030261
v 0.068000 -0.094685 0.043603
v -0.024000 -0.094650 0.054562
v 0.068000 -0.081300 0.065242
v -0.024000 -0.078796 0.075673
v 0.068000 -0.063072 0.082996
v -0.024000 -0.049258 0.098198
v 0.068000 -0.041082 0.095804
v -0.002100 -0.025318 0.105131
v -0.024000 -0.025546 0.105964
v -0.023998 -0.028011 -0.105251
v -0.045000 0.027107 -0.106810
v -0.045000 -0.027592 -0.105826
v -0.045000 -0.027592 -0.105826
v -0.045000 -0.028000 -0.095000
v -0.045000 -0.005000 -0.095000
v -0.045000 0.005000 -0.095000
v -0.045000 0.028000 -0.095000
v -0.045000 0.027107 -0.106810
v -0.045000 -0.004952 -0.028285
v -0.045000 0.004992 -0.028097
v -0.024000 -0.028000 -0.095000
v -0.045000 -0.028000 -0.095000
v -0.023998 -0.028011 -0.105251
v -0.045000 -0.027592 -0.105826
v -0.024000 0.028000 -0.095000
v -0.023998 0.028011 -0.105251
v -0.045000 0.028000 -0.095000
v -0.045000 0.027107 -0.106810
v -0.045000 0.028000 -0.095000
v -0.045000 0.005000 -0.095000
v -0.024000 0.028000 -0.095000
v -0.024000 0.004973 -0.093439
v -0.045000 -0.005000 -0.095000
v -0.045000 -0.028000 -0.095000
v -0.024000 -0.004971 -0.092942
v -0.024000 -0.028000 -0.095000
v -0.045000 -0.004952 -0.028285
v -0.045000 -0.005000 -0.095000
v -0.024000 -0.004971 -0.092942
v -0.015000 -0.005000 -0.091864
v -0.015000 -0.004977 -0.028099
v -0.045000 0.005000 -0.095000
v -0.045000 0.004992 -0.028097
v -0.024000 0.004973 -0.093439
v -0.015000 0.004906 -0.028289
v -0.015000 0.004982 -0.091906
v -0.045423 -0.025546 0.111000
v -0.045423 -0.025546 0.096000
v -0.045423 0.025546 0.096000
v -0.045000 0.005000 0.096000
v -0.045000 0.004961 0.028221
v -0.045000 -0.004988 0.028119
v -0.045000 -0.005000 0.096000
v -0.015000 0.004977 0.028099
v -0.045000 0.004961 0.028221
v -0.015000 0.005000 0.091864
v -0.024000 0.004949 0.093250
v -0.045000 0.005000 0.096000
v -0.045000 -0.005000 0.096000
v -0.045000 -0.004988 0.028119
v -0.024000 -0.005000 0.096000
v -0.024000 -0.005178 0.092523
v -0.015000 -0.004906 0.028289
v -0.015000 -0.004986 0.091913
v -0.045423 -0.025546 0.096000
v -0.024000 -0.005000 0.096000
v -0.024000 -0.025546 0.096000
v -0.045000 -0.005000 0.096000
v -0.045423 0.025546 0.096000
v -0.045000 0.005000 0.096000
v -0.024000 0.025546 0.096000
v -0.024000 0.004949 0.093250
v -0.015000 -0.004986 0.091913
v -0.015000 -0.004906 0.028289
v -0.015000 0.004977 0.028099
v -0.015000 0.005000 0.091864
v -0.015000 -0.004977 -0.028099
v -0.015000 0.004982 -0.091906
v -0.015000 0.004906 -0.028289
v -0.015000 -0.005000 -0.091864
v 0.068000 0.021551 -0.089692
v -0.024000 0.016097 -0.090732
v 0.068000 -0.006116 -0.092193
v -0.024000 0.036773 -0.084599
v 0.068000 0.044073 -0.081034
v -0.024000 0.057517 -0.072117
v 0.068000 0.063580 -0.066831
v -0.024000 0.074299 -0.054668
v 0.068000 0.078736 -0.048057
v -0.024000 0.085964 -0.033454
v 0.068000 0.090924 -0.018118
v -0.024000 0.091838 -0.009089
v -0.024000 0.089913 0.022035
v 0.068000 0.091143 0.014197
v 0.068000 0.084344 0.037347
v -0.024000 0.077732 0.049664
v 0.068000 0.071774 0.057942
v -0.024000 0.062135 0.068179
v 0.068000 0.054292 0.074573
v -0.024000 0.042257 0.081998
v 0.068000 0.033096 0.086103
v -0.024000 0.019468 0.090168
v 0.068000 0.000002 0.092767
v -0.024000 0.004973 -0.093439
v -0.015000 0.004982 -0.091906
v -0.015000 -0.004986 0.091913
v -0.015000 0.005000 0.091864
v 0.068000 0.000002 0.092767
v 0.068000 0.000002 0.092767
v -0.024000 0.004949 0.093250
v 0.068000 -0.033096 0.086102
v -0.024000 -0.005178 0.092523
v 0.068000 0.000002 0.092767
v -0.024000 -0.036773 0.084599
v 0.068000 -0.054292 0.074573
v -0.024000 -0.057517 0.072117
v 0.068000 -0.071774 0.057942
v -0.024000 -0.074299 0.054668
v 0.068000 -0.084344 0.037347
v -0.024000 -0.089674 0.024143
v 0.068000 -0.091547 0.012069
v 0.068000 -0.091143 -0.014197
v -0.024000 -0.085964 -0.033454
v -0.024000 -0.091707 -0.009935
v 0.068000 -0.084344 -0.037347
v -0.024000 -0.074299 -0.054669
v 0.068000 -0.071774 -0.057942
v -0.024000 -0.057517 -0.072117
v 0.068000 -0.054292 -0.074573
v -0.024000 -0.036774 -0.084599
v 0.068000 -0.033096 -0.086102
v -0.024000 -0.004971 -0.092942
v 0.068000 -0.006116 -0.092193
v -0.015000 -0.005000 -0.091864
v 0.068000 -0.006116 -0.092193
v 0.068000 0.000002 0.092767
v -0.045000 -0.004952 -0.028285
v -0.081494 -0.009483 -0.027010
v -0.081501 0.000000 -0.028616
v -0.015000 -0.004977 -0.028099
v 0.000000 -0.008151 -0.027605
v -0.045000 -0.004988 0.028119
v -0.081497 -0.000014 0.028621
v -0.081484 -0.011515 0.026360
v 0.000000 -0.006655 0.028019
v -0.015000 -0.004906 0.028289
v -0.045000 0.004961 0.028221
v 0.000000 -0.023143 0.017903
v -0.081496 -0.021052 0.019393
v -0.081505 -0.027133 0.009456
v 0.000000 -0.028731 0.000475
v -0.081499 -0.028165 -0.007116
v 0.000000 -0.023788 -0.017036
v -0.081506 -0.019438 -0.021162
v -0.015000 0.004906 -0.028289
v 0.000000 0.006655 -0.028019
v -0.081494 0.009483 0.027010
v -0.015000 0.004977 0.028099
v 0.000000 0.008151 0.027605
v -0.045000 0.004992 -0.028097
v -0.081484 0.011515 -0.026360
v 0.000000 0.023143 -0.017903
v -0.081523 0.025561 -0.014227
v 0.000000 0.023143 -0.017903
v -0.081523 0.025561 -0.014227
v 0.000000 0.028731 -0.000475
v -0.081499 0.028165 0.007116
v 0.000000 0.023788 0.017036
v -0.081506 0.019438 0.021162
v -0.092522 -0.008884 -0.011072
v -0.092526 -0.013693 0.003721
v -0.092506 -0.004304 0.013165
v -0.092506 0.004304 -0.013165
v -0.092522 0.008884 0.011072
v -0.092526 0.013693 -0.003721
v -0.081501 0.000000 -0.028616
v -0.092522 -0.008884 -0.011072
v -0.092506 0.004304 -0.013165
v -0.081494 -0.009483 -0.027010
v -0.081506 -0.019438 -0.021162
v -0.081499 -0.028165 -0.007116
v -0.092526 -0.013693 0.003721
v -0.081505 -0.027133 0.009456
v -0.081496 -0.021052 0.019393
v -0.081484 -0.011515 0.026360
v -0.092506 -0.004304 0.013165
v -0.081497 -0.000014 0.028621
v -0.092522 0.008884 0.011072
v -0.081494 0.009483 0.027010
v -0.081506 0.019438 0.021162
v -0.081499 0.028165 0.007116
v -0.092526 0.013693 -0.003721
v -0.081523 0.025561 -0.014227
v -0.081484 0.011515 -0.026360
v 0.000000 0.006655 -0.028019
v 0.000000 -0.006655 0.028019
v 0.000000 -0.008151 -0.027605
v 0.000000 -0.023143 0.017903
v 0.000000 -0.023788 -0.017036
v 0.000000 -0.028731 0.000475
v 0.000000 0.008151 0.027605
v 0.000000 0.023143 -0.017903
v 0.000000 0.023788 0.017036
v 0.000000 0.028731 -0.000475
vn 0.0000 0.0000 1.0000
vn 0.0000 0.9998 -0.0197
vn -1.0000 0.0000 0.0000
vn 1.0000 0.0000 0.0000
vn 0.0005 -1.0000 -0.0022
vn 0.0089 -0.9992 -0.0388
vn 0.0076 -0.9994 -0.0332
vn 0.0000 -1.0000 0.0000
vn 1.0000 0.0000 -0.0002
vn 1.0000 -0.0004 0.0032
vn 0.0004 1.0000 0.0000
vn 0.0004 0.9999 -0.0168
vn 0.0039 0.9999 0.0168
vn 0.0000 1.0000 0.0000
vn -1.0000 -0.0000 -0.0001
vn -1.0000 -0.0001 -0.0001
vn -1.0000 0.0001 -0.0001
vn -1.0000 -0.0001 -0.0000
vn -1.0000 0.0001 -0.0000
vn 0.0579 0.1260 0.9903
vn 0.0624 0.2717 0.9604
vn 0.0459 -0.0014 0.9989
vn 0.0579 0.3820 0.9223
vn 0.0501 0.4627 0.8851
vn 0.0619 0.6051 0.7938
vn 0.0454 0.7103 0.7025
vn 0.0611 0.7785 0.6247
vn 0.0479 0.8653 0.4989
vn 0.0612 0.9066 0.4175
vn 0.0479 0.9598 0.2767
vn 0.0613 0.9808 0.1854
vn 0.0478 0.9981 0.0384
vn 0.0614 0.9964 -0.0578
vn 0.0463 0.9756 -0.2147
vn 0.0616 0.9510 -0.3031
vn 0.0473 0.8599 -0.5083
vn 0.0616 0.8245 -0.5625
vn 0.0493 0.4184 -0.9069
vn 0.0480 0.6459 -0.7619
vn 0.0611 0.6013 -0.7967
vn 0.0617 0.3268 -0.9431
vn 0.0608 0.0282 -0.9977
vn -0.0065 0.0614 -0.9981
vn 0.0577 0.2328 -0.9708
vn 0.0386 0.3110 0.9496
vn 0.0578 -0.1581 0.9857
vn -0.0043 -0.1026 -0.9947
vn 0.0636 -0.2722 -0.9601
vn 0.0637 -0.5469 -0.8347
vn 0.0483 -0.4157 -0.9082
vn 0.0441 -0.6394 -0.7676
vn 0.0657 -0.7754 -0.6280
vn 0.0431 -0.8561 -0.5151
vn 0.0659 -0.9328 -0.3543
vn 0.0447 -0.9757 -0.2147
vn 0.0629 -0.9958 -0.0668
vn 0.0478 -0.9981 0.0384
vn 0.0613 -0.9808 0.1854
vn 0.0479 -0.9598 0.2767
vn 0.0612 -0.9066 0.4175
vn 0.0479 -0.8653 0.4989
vn 0.0611 -0.7785 0.6247
vn 0.0454 -0.7103 0.7025
vn 0.0619 -0.6051 0.7937
vn 0.0490 -0.4631 0.8849
vn 0.0584 -0.3883 0.9197
vn 0.0579 -0.2635 0.9629
vn 0.0394 -0.3110 0.9496
vn 0.0417 -0.2429 -0.9691
vn -0.0288 0.0746 -0.9968
vn -0.0516 -0.0854 -0.9950
vn 0.0000 -1.0000 0.0011
vn -0.0134 -0.9996 -0.0265
vn -0.0057 -0.9999 -0.0106
vn -0.0189 -0.9991 -0.0377
vn 0.0000 1.0000 0.0011
vn -0.0120 0.9997 -0.0235
vn -0.0265 0.9982 -0.0533
vn -0.0373 0.9965 -0.0753
vn -0.0392 0.0358 0.9986
vn -0.0349 0.0319 0.9989
vn -0.0739 0.0674 0.9950
vn -0.0975 0.0000 0.9952
vn -0.0460 -0.0472 0.9978
vn -0.0517 -0.0420 0.9978
vn 0.0000 -0.0890 0.9960
vn -0.0006 -1.0000 0.0003
vn 0.0013 -1.0000 0.0007
vn -0.0016 -1.0000 0.0027
vn -0.0093 -0.9986 0.0527
vn -0.0008 -1.0000 0.0004
vn 0.0013 1.0000 0.0001
vn 0.0026 1.0000 0.0005
vn 0.0005 1.0000 0.0006
vn 0.0025 1.0000 0.0007
vn -0.0012 1.0000 0.0012
vn -0.0005 1.0000 -0.0004
vn -0.0004 1.0000 -0.0002
vn 0.0318 0.9705 0.2389
vn 0.0007 0.9998 0.0188
vn 0.0024 1.0000 -0.0006
vn 0.0000 -1.0000 -0.0002
vn 0.0006 -1.0000 -0.0026
vn -0.0317 -0.9995 0.0096
vn -0.0911 -0.9951 0.0370
vn 0.0044 -1.0000 -0.0036
vn 0.0404 -0.9544 0.2958
vn 0.0000 0.0000 -1.0000
vn -0.0214 0.0219 -0.9995
vn -0.0657 0.0672 -0.9956
vn -0.1284 0.1312 -0.9830
vn -0.0059 -0.2261 0.9741
vn -0.0360 -0.2208 0.9747
vn -0.0056 -0.0845 0.9964
vn 0.0057 -0.4027 0.9153
vn -0.0065 -0.4779 0.8784
vn 0.0065 -0.6235 0.7818
vn -0.0064 -0.6893 0.7245
vn 0.0064 -0.8054 0.5926
vn -0.0088 -0.8605 0.5094
vn 0.0080 -0.9318 0.3630
vn -0.0091 -0.9809 0.1943
vn 0.0087 -0.9963 0.0855
vn 0.0082 -0.9719 -0.2352
vn -0.0084 -0.9904 -0.1383
vn -0.0076 -0.9140 -0.4056
vn 0.0086 -0.8479 -0.5300
vn -0.0071 -0.7781 -0.6281
vn 0.0071 -0.6736 -0.7390
vn -0.0071 -0.5886 -0.8084
vn 0.0071 -0.4581 -0.8889
vn -0.0097 -0.3431 -0.9392
vn -0.0049 -0.2657 -0.9641
vn -0.0143 -0.1985 -0.9800
vn -0.1631 -0.2333 0.9586
vn -0.0367 -0.1022 0.9941
vn 0.0106 -0.0049 -0.9999
vn 0.0518 0.9274 0.3706
vn -0.0163 -0.2076 -0.9781
vn -0.0051 0.3424 -0.9395
vn 0.0029 0.2332 -0.9724
vn -0.0085 0.1974 -0.9803
vn 0.0047 0.3840 -0.9233
vn -0.0040 0.5885 -0.8085
vn 0.0041 0.6236 -0.7818
vn -0.0041 0.7780 -0.6282
vn 0.0076 0.8146 -0.5800
vn -0.0081 0.9145 -0.4045
vn 0.0102 0.9656 -0.2600
vn -0.0084 0.9918 -0.1272
vn -0.0044 0.9887 0.1501
vn 0.0042 0.9319 0.3626
vn 0.0074 0.9957 0.0921
vn -0.0042 0.9143 0.4049
vn 0.0041 0.8055 0.5926
vn -0.0041 0.7780 0.6282
vn 0.0041 0.6236 0.7818
vn -0.0040 0.5885 0.8085
vn 0.0045 0.3889 0.9213
vn -0.0038 0.3524 0.9358
vn 0.0036 0.2475 0.9689
vn -0.0052 0.2202 0.9754
vn 0.0040 0.0042 1.0000
vn -0.0131 -0.9965 0.0823
vn 0.0492 -0.8946 0.4442
vn 0.0065 -0.2058 -0.9786
vn -0.0053 -0.3471 -0.9378
vn -0.0111 0.0132 -0.9999
vn 0.0084 -0.1179 -0.9930
vn 0.0162 -0.3092 -0.9509
vn -0.0010 -0.1595 0.9872
vn -0.0104 -0.0127 0.9999
vn -0.0051 -0.4045 0.9145
vn 0.0168 -0.2604 0.9653
vn 0.0058 -0.1171 0.9931
vn 0.0055 0.1914 0.9815
vn 0.0133 -0.7864 0.6176
vn -0.0064 -0.7329 0.6803
vn -0.0109 -0.9536 0.3010
vn 0.0155 -0.9997 0.0187
vn -0.0138 -0.9700 -0.2426
vn 0.0139 -0.8092 -0.5873
vn -0.0073 -0.6936 -0.7203
vn 0.0054 0.1207 -0.9927
vn 0.0168 0.2604 -0.9653
vn -0.0046 0.3467 0.9380
vn 0.0083 0.1175 0.9930
vn 0.0162 0.3092 0.9509
vn -0.0014 0.1593 -0.9872
vn -0.0116 0.4370 -0.8994
vn 0.0099 0.5420 -0.8403
vn -0.0147 0.6536 -0.7567
vn 0.0145 0.9521 -0.3053
vn -0.0137 0.9891 -0.1467
vn 0.0143 0.9997 -0.0190
vn -0.0167 0.9764 0.2154
vn 0.0139 0.8092 0.5873
vn -0.0073 0.6936 0.7203
vn -1.0000 0.0014 0.0004
vn -1.0000 0.0018 0.0003
vn -1.0000 -0.0014 -0.0004
vn -1.0000 -0.0018 -0.0003
vn -0.8140 -0.0046 -0.5808
vn -0.8445 -0.3409 -0.4132
vn -0.8360 0.1741 -0.5203
vn -0.8113 -0.1859 -0.5543
vn -0.7981 -0.4221 -0.4299
vn -0.8122 -0.5646 -0.1469
vn -0.8451 -0.5181 0.1317
vn -0.7973 -0.5737 0.1877
vn -0.8106 -0.4274 0.4002
vn -0.8056 -0.2420 0.5407
vn -0.8393 -0.1663 0.5177
vn -0.8140 0.0045 0.5808
vn -0.8445 0.3409 0.4132
vn -0.8113 0.1858 0.5544
vn -0.7981 0.4221 0.4299
vn -0.8093 0.5714 0.1365
vn -0.8413 0.5236 -0.1345
vn -0.8088 0.5122 -0.2889
vn -0.8063 0.2614 -0.5307
s off
f 56//1 203//1 60//1
f 118//2 61//2 56//2
f 203//3 225//3 221//3
f 56//1 61//1 203//1
f 203//3 61//3 225//3
s 1
f 5//4 6//4 7//4
f 5//4 7//4 8//4
f 5//4 8//4 9//4
f 7//4 10//4 11//4
f 7//4 11//4 8//4
f 12//4 13//4 14//4
f 12//4 14//4 15//4
f 12//4 15//4 16//4
f 12//4 16//4 17//4
f 18//4 19//4 12//4
f 12//4 19//4 13//4
f 20//4 19//4 18//4
f 21//4 22//4 23//4
f 23//4 22//4 24//4
f 23//4 24//4 20//4
f 20//4 24//4 19//4
f 25//4 26//4 27//4
f 27//4 26//4 28//4
f 27//4 28//4 29//4
f 29//4 28//4 30//4
f 29//4 30//4 21//4
f 21//4 30//4 22//4
f 31//4 32//4 33//4
f 33//4 32//4 34//4
f 33//4 34//4 25//4
f 25//4 34//4 26//4
f 6//4 5//4 32//4
f 6//4 32//4 31//4
f 35//4 17//4 36//4
f 36//4 17//4 16//4
f 36//4 37//4 35//4
f 38//4 39//4 40//4
f 38//4 40//4 41//4
f 41//4 40//4 37//4
f 41//4 37//4 36//4
f 42//4 43//4 44//4
f 42//4 44//4 45//4
f 45//4 44//4 46//4
f 45//4 46//4 38//4
f 38//4 46//4 39//4
f 10//4 47//4 48//4
f 48//4 47//4 49//4
f 48//4 49//4 43//4
f 48//4 43//4 42//4
f 10//4 7//4 47//4
f 50//5 51//6 52//7
f 50//5 52//7 53//8
f 50//5 53//8 54//8
f 50//5 54//8 55//8
f 56//9 57//9 58//10
f 56//9 58//10 59//9
f 60//9 57//9 56//9
f 61//11 62//12 63//13
f 61//11 63//13 64//14
f 61//11 64//14 65//14
f 66//3 67//3 68//3
f 69//15 70//3 71//16
f 72//3 73//3 74//3
f 75//17 76//3 77//3
f 78//3 71//16 70//3
f 79//3 67//3 66//3
f 80//3 81//18 82//15
f 80//3 82//15 75//17
f 80//3 75//17 77//3
f 83//3 84//3 73//3
f 83//3 73//3 72//3
f 83//3 72//3 85//3
f 86//3 87//3 88//3
f 86//3 88//3 89//3
f 90//3 91//3 92//3
f 90//3 92//3 93//3
f 93//3 92//3 94//3
f 93//3 94//3 95//3
f 94//3 96//3 95//3
f 97//3 96//3 94//3
f 96//3 97//3 98//3
f 98//3 97//3 99//3
f 98//3 99//3 100//3
f 100//3 99//3 68//3
f 68//3 99//3 101//3
f 68//3 101//3 66//3
f 93//3 95//3 102//3
f 93//3 102//3 103//3
f 103//3 102//3 104//3
f 103//3 104//3 105//3
f 103//3 105//3 106//19
f 106//19 105//3 70//3
f 106//19 70//3 69//15
f 81//18 80//3 107//3
f 81//18 107//3 108//3
f 108//3 107//3 109//3
f 108//3 109//3 87//3
f 87//3 109//3 110//3
f 87//3 110//3 88//3
f 74//3 73//3 111//3
f 111//3 73//3 112//3
f 111//3 112//3 113//3
f 113//3 112//3 89//3
f 89//3 112//3 86//3
f 87//3 86//3 114//3
f 87//3 114//3 115//3
f 115//3 114//3 116//3
f 117//20 118//21 119//22
f 120//23 121//24 117//20
f 122//25 121//24 120//23
f 122//25 123//26 121//24
f 124//27 123//26 122//25
f 124//27 125//28 123//26
f 126//29 125//28 124//27
f 126//29 127//30 125//28
f 128//31 127//30 126//29
f 128//31 129//32 127//30
f 130//33 129//32 128//31
f 130//33 131//34 129//32
f 132//35 131//34 130//33
f 132//35 133//36 131//34
f 134//37 133//36 132//35
f 135//38 136//39 137//40
f 137//40 138//41 135//38
f 138//41 139//42 140//43
f 141//44 135//38 138//41
f 141//44 138//41 140//43
f 118//21 117//20 121//24
f 118//21 121//24 142//45
f 137//40 136//39 134//37
f 134//37 136//39 133//36
f 117//20 119//22 143//46
f 139//42 144//47 140//43
f 145//48 144//47 139//42
f 146//49 147//50 145//48
f 146//49 148//51 147//50
f 149//52 148//51 146//49
f 149//52 150//53 148//51
f 149//52 151//54 150//53
f 152//55 150//53 151//54
f 151//54 153//56 152//55
f 154//57 152//55 153//56
f 153//56 155//58 154//57
f 156//59 154//57 155//58
f 155//58 157//60 156//59
f 158//61 156//59 157//60
f 157//60 159//62 158//61
f 160//63 158//61 159//62
f 159//62 161//64 160//63
f 162//65 160//63 161//64
f 161//64 163//66 162//65
f 163//66 143//46 162//65
f 119//22 164//67 143//46
f 164//67 165//68 162//65
f 164//67 162//65 143//46
f 166//69 144//47 145//48
f 166//69 145//48 147//50
f 167//70 140//43 144//47
f 167//70 144//47 168//71
f 169//3 170//3 171//3
f 169//3 171//3 172//3
f 169//3 172//3 173//3
f 169//3 173//3 174//3
f 175//3 176//3 171//3
f 171//3 176//3 172//3
f 177//72 178//73 179//74
f 179//74 178//73 180//75
f 168//71 144//47 166//69
f 181//76 182//77 183//78
f 183//78 182//77 184//79
f 140//43 167//70 141//44
f 185//1 186//80 187//81
f 187//81 186//80 188//82
f 189//83 190//84 191//85
f 191//85 190//84 192//86
f 193//87 194//88 195//89
f 193//87 195//89 196//90
f 193//87 196//90 197//91
f 198//92 199//93 200//94
f 199//93 201//95 200//94
f 200//94 201//95 202//96
f 206//3 207//3 208//3
f 206//3 208//3 209//3
f 210//97 211//98 212//99
f 212//99 211//98 213//100
f 211//98 214//101 213//100
f 215//102 216//103 217//104
f 217//104 216//103 218//105
f 216//103 219//106 218//105
f 218//105 219//106 220//107
f 221//108 222//108 223//108
f 222//108 221//108 224//108
f 224//108 221//108 225//108
f 224//108 225//108 226//109
f 226//109 225//108 227//110
f 226//109 227//110 228//111
f 229//4 230//4 231//4
f 229//4 231//4 232//4
f 233//4 234//4 235//4
f 236//4 234//4 233//4
f 237//112 238//113 239//114
f 240//115 238//113 237//112
f 241//116 240//115 237//112
f 242//117 240//115 241//116
f 243//118 242//117 241//116
f 244//119 242//117 243//118
f 245//120 244//119 243//118
f 246//121 244//119 245//120
f 247//122 246//121 245//120
f 248//123 246//121 247//122
f 249//124 250//125 251//126
f 251//126 252//127 249//124
f 252//127 251//126 253//128
f 253//128 254//129 252//127
f 254//129 253//128 255//130
f 255//130 256//131 254//129
f 256//131 255//130 257//132
f 257//132 258//133 256//131
f 258//133 257//132 259//134
f 260//135 261//136 238//113
f 238//113 261//136 239//114
f 262//137 263//137 264//137
f 212//99 213//100 265//138
f 259//134 266//139 258//133
f 250//125 249//124 248//123
f 250//125 248//123 247//122
f 267//140 268//141 269//142
f 270//143 268//141 267//140
f 271//144 270//143 267//140
f 272//145 270//143 271//144
f 273//146 272//145 271//144
f 274//147 272//145 273//146
f 275//148 274//147 273//146
f 276//149 274//147 275//148
f 277//150 276//149 275//148
f 278//151 279//152 280//153
f 279//152 278//151 281//154
f 281//154 282//155 279//152
f 282//155 281//154 283//156
f 283//156 284//157 282//155
f 284//157 283//156 285//158
f 285//158 286//159 284//157
f 286//159 285//158 287//160
f 287//160 288//161 286//159
f 288//161 287//160 289//162
f 261//136 290//163 239//114
f 196//90 195//89 291//164
f 218//105 220//107 292//165
f 278//151 280//153 277//150
f 277//150 280//153 276//149
f 293//166 294//167 295//168
f 296//169 297//170 294//167
f 296//169 294//167 293//166
f 298//171 299//172 300//173
f 298//171 300//173 301//174
f 298//171 301//174 302//175
f 299//172 298//171 303//176
f 301//174 300//173 304//177
f 304//177 300//173 305//178
f 304//177 305//178 306//179
f 304//177 306//179 307//180
f 307//180 306//179 308//181
f 307//180 308//181 309//182
f 309//182 308//181 310//183
f 309//182 310//183 297//170
f 297//170 310//183 294//167
f 296//169 311//184 297//170
f 297//170 311//184 312//185
f 303//176 313//186 299//172
f 314//187 315//188 313//186
f 314//187 313//186 303//176
f 316//189 295//168 317//190
f 316//189 317//190 312//185
f 316//189 312//185 311//184
f 312//185 317//190 318//191
f 318//191 317//190 319//192
f 320//193 321//194 322//195
f 322//195 321//194 323//196
f 322//195 323//196 324//197
f 324//197 323//196 325//198
f 324//197 325//198 315//188
f 315//188 325//198 313//186
f 314//187 302//175 315//188
f 315//188 302//175 301//174
f 293//166 295//168 316//189
f 326//199 327//200 328//19
f 326//199 328//19 329//18
f 329//18 328//19 330//201
f 329//18 330//201 331//202
f 332//203 333//204 334//205
f 332//203 335//206 333//204
f 335//206 336//207 333//204
f 336//207 337//208 333//204
f 333//204 337//208 338//209
f 337//208 339//210 338//209
f 339//210 340//211 338//209
f 340//211 341//212 342//213
f 338//209 340//211 342//213
f 341//212 343//214 342//213
f 343//214 344//215 342//213
f 343//214 345//216 344//215
f 345//216 346//217 344//215
f 346//217 347//218 344//215
f 344//215 347//218 348//219
f 347//218 349//220 348//219
f 349//220 350//221 334//205
f 348//219 349//220 334//205
f 350//221 332//203 334//205
f 351//4 352//4 353//4
f 353//4 352//4 354//4
f 353//4 354//4 355//4
f 355//4 354//4 356//4
f 352//4 351//4 357//4
f 357//4 351//4 358//4
f 357//4 358//4 359//4
f 359//4 358//4 360//4
