# Blender v3.6.8 OBJ File: 'm2_prototype.blend'
# www.blender.org
o rb-thruster-mount_visual_rb-thruster-mount
v -0.150000 0.263501 -0.011411
v -0.150000 0.243501 -0.011411
v -0.150000 0.263501 -0.015411
v -0.150000 0.243501 -0.015411
v -0.225000 0.243501 -0.051411
v -0.225000 0.263501 -0.051411
v -0.221000 0.243501 -0.051411
v -0.221000 0.263501 -0.051411
v -0.160000 0.273501 -0.015411
v -0.215000 0.273501 -0.015411
v -0.160000 0.273501 -0.011411
v -0.215000 0.273501 -0.011411
v -0.160532 0.260218 -0.011411
v -0.170702 0.261093 -0.011411
v -0.170468 0.260218 -0.011411
v -0.160298 0.247658 -0.011411
v -0.172218 0.248533 -0.011411
v -0.160532 0.246783 -0.011411
v -0.171343 0.248299 -0.011411
v -0.160298 0.261093 -0.011411
v -0.159657 0.261734 -0.011411
v -0.158782 0.261968 -0.011411
v -0.170702 0.247658 -0.011411
v -0.170468 0.246783 -0.011411
v -0.160298 0.245908 -0.011411
v -0.170702 0.245908 -0.011411
v -0.171343 0.245268 -0.011411
v -0.172218 0.245033 -0.011411
v -0.173093 0.245268 -0.011411
v -0.215000 0.233501 -0.011411
v -0.173733 0.245908 -0.011411
v -0.160298 0.259343 -0.011411
v -0.170702 0.259343 -0.011411
v -0.171343 0.258703 -0.011411
v -0.173733 0.261093 -0.011411
v -0.173092 0.261734 -0.011411
v -0.172218 0.261968 -0.011411
v -0.157267 0.261093 -0.011411
v -0.157032 0.260218 -0.011411
v -0.159657 0.245268 -0.011411
v -0.160000 0.233501 -0.011411
v -0.158782 0.245033 -0.011411
v -0.172218 0.258468 -0.011411
v -0.173093 0.258703 -0.011411
v -0.173733 0.259343 -0.011411
v -0.173968 0.260218 -0.011411
v -0.171343 0.261734 -0.011411
v -0.150341 0.266089 -0.011411
v -0.151340 0.268501 -0.011411
v -0.157907 0.261734 -0.011411
v -0.157267 0.259343 -0.011411
v -0.158782 0.248533 -0.011411
v -0.157907 0.248299 -0.011411
v -0.157267 0.247658 -0.011411
v -0.157032 0.246783 -0.011411
v -0.150341 0.240913 -0.011411
v -0.157267 0.245908 -0.011411
v -0.151340 0.238501 -0.011411
v -0.157907 0.245268 -0.011411
v -0.157412 0.233842 -0.011411
v -0.155000 0.234841 -0.011411
v -0.152929 0.236430 -0.011411
v -0.157907 0.258703 -0.011411
v -0.158782 0.258468 -0.011411
v -0.159657 0.248299 -0.011411
v -0.159657 0.258703 -0.011411
v -0.173968 0.246783 -0.011411
v -0.173733 0.247658 -0.011411
v -0.173093 0.248299 -0.011411
v -0.152929 0.270572 -0.011411
v -0.155000 0.272161 -0.011411
v -0.157412 0.273160 -0.011411
v -0.160000 0.233501 -0.015411
v -0.215000 0.233501 -0.015411
v -0.157267 0.245908 -0.015411
v -0.157032 0.246783 -0.015411
v -0.157267 0.247658 -0.015411
v -0.173733 0.259343 -0.015411
v -0.173093 0.258703 -0.015411
v -0.172218 0.248533 -0.015411
v -0.157907 0.248299 -0.015411
v -0.157907 0.258703 -0.015411
v -0.158782 0.248533 -0.015411
v -0.170702 0.247658 -0.015411
v -0.159657 0.258703 -0.015411
v -0.158782 0.258468 -0.015411
v -0.150341 0.240913 -0.015411
v -0.151340 0.238501 -0.015411
v -0.157907 0.245268 -0.015411
v -0.152929 0.236430 -0.015411
v -0.158782 0.245033 -0.015411
v -0.155000 0.234841 -0.015411
v -0.170702 0.261093 -0.015411
v -0.158782 0.261968 -0.015411
v -0.170468 0.260218 -0.015411
v -0.159657 0.261734 -0.015411
v -0.160298 0.259343 -0.015411
v -0.171343 0.248299 -0.015411
v -0.157267 0.259343 -0.015411
v -0.157032 0.260218 -0.015411
v -0.150341 0.266089 -0.015411
v -0.157267 0.261093 -0.015411
v -0.151340 0.268501 -0.015411
v -0.157907 0.261734 -0.015411
v -0.152929 0.270572 -0.015411
v -0.157412 0.273160 -0.015411
v -0.155000 0.272161 -0.015411
v -0.173968 0.260218 -0.015411
v -0.173093 0.248299 -0.015411
v -0.173733 0.247658 -0.015411
v -0.171343 0.261734 -0.015411
v -0.172218 0.261968 -0.015411
v -0.173092 0.261734 -0.015411
v -0.173733 0.261093 -0.015411
v -0.172218 0.245033 -0.015411
v -0.160298 0.245908 -0.015411
v -0.173093 0.245268 -0.015411
v -0.173733 0.245908 -0.015411
v -0.170468 0.246783 -0.015411
v -0.159657 0.248299 -0.015411
v -0.157412 0.233842 -0.015411
v -0.159657 0.245268 -0.015411
v -0.173968 0.246783 -0.015411
v -0.160298 0.261093 -0.015411
v -0.160532 0.260218 -0.015411
v -0.170702 0.259343 -0.015411
v -0.171343 0.258703 -0.015411
v -0.172218 0.258468 -0.015411
v -0.171343 0.245268 -0.015411
v -0.170702 0.245908 -0.015411
v -0.160532 0.246783 -0.015411
v -0.160298 0.247658 -0.015411
v -0.221000 0.273501 -0.021411
v -0.225000 0.273501 -0.021411
v -0.220706 0.273501 -0.019557
v -0.224659 0.273501 -0.018823
v -0.219854 0.273501 -0.017885
v -0.217588 0.273501 -0.011752
v -0.216854 0.273501 -0.015705
v -0.220000 0.273501 -0.012751
v -0.218527 0.273501 -0.016557
v -0.222071 0.273501 -0.014340
v -0.223660 0.273501 -0.016411
v -0.225000 0.233501 -0.021411
v -0.224659 0.233501 -0.018823
v -0.223660 0.233501 -0.016411
v -0.222071 0.233501 -0.014340
v -0.220000 0.233501 -0.012751
v -0.217588 0.233501 -0.011752
v -0.215000 0.273501 -0.011411
v -0.216854 0.233501 -0.015705
v -0.218527 0.233501 -0.016557
v -0.221000 0.233501 -0.021411
v -0.220706 0.233501 -0.019557
v -0.219854 0.233501 -0.017884
v -0.225000 0.273501 -0.041411
v -0.221000 0.273501 -0.041411
v -0.225000 0.268501 -0.050072
v -0.225000 0.263501 -0.039161
v -0.225000 0.270572 -0.048482
v -0.225000 0.264876 -0.038793
v -0.225000 0.272161 -0.046411
v -0.225000 0.261119 -0.037786
v -0.225000 0.262126 -0.038793
v -0.225000 0.266089 -0.051071
v -0.225000 0.273160 -0.044000
v -0.225000 0.265882 -0.037786
v -0.225000 0.266251 -0.036411
v -0.225000 0.265882 -0.035036
v -0.225000 0.264876 -0.034030
v -0.225000 0.263501 -0.033661
v -0.225000 0.243501 -0.033661
v -0.225000 0.242126 -0.034030
v -0.225000 0.241119 -0.035036
v -0.225000 0.233501 -0.041411
v -0.225000 0.243501 -0.039161
v -0.225000 0.244876 -0.038793
v -0.225000 0.245882 -0.037786
v -0.225000 0.260751 -0.036411
v -0.225000 0.246251 -0.036411
v -0.225000 0.261119 -0.035036
v -0.225000 0.240751 -0.036411
v -0.225000 0.241119 -0.037786
v -0.225000 0.233842 -0.043999
v -0.225000 0.242126 -0.038793
v -0.225000 0.234841 -0.046411
v -0.225000 0.240913 -0.051070
v -0.225000 0.238501 -0.050071
v -0.225000 0.236430 -0.048482
v -0.225000 0.244876 -0.034030
v -0.225000 0.245882 -0.035036
v -0.225000 0.262126 -0.034030
v -0.221000 0.233501 -0.041411
v -0.221000 0.262126 -0.038793
v -0.221000 0.261119 -0.037786
v -0.221000 0.244876 -0.038793
v -0.221000 0.263501 -0.033661
v -0.221000 0.262126 -0.034030
v -0.221000 0.261119 -0.035036
v -0.221000 0.264876 -0.034030
v -0.221000 0.265882 -0.035036
v -0.221000 0.238501 -0.050071
v -0.221000 0.243501 -0.039161
v -0.221000 0.236430 -0.048482
v -0.221000 0.242126 -0.038793
v -0.221000 0.234841 -0.046411
v -0.221000 0.263501 -0.039161
v -0.221000 0.240913 -0.051070
v -0.221000 0.233842 -0.043999
v -0.221000 0.241119 -0.037786
v -0.221000 0.240751 -0.036411
v -0.221000 0.241119 -0.035036
v -0.221000 0.242126 -0.034030
v -0.221000 0.270572 -0.048482
v -0.221000 0.264876 -0.038793
v -0.221000 0.268501 -0.050072
v -0.221000 0.266089 -0.051071
v -0.221000 0.243501 -0.033661
v -0.221000 0.244876 -0.034030
v -0.221000 0.245882 -0.035036
v -0.221000 0.260751 -0.036411
v -0.221000 0.246251 -0.036411
v -0.221000 0.245882 -0.037786
v -0.221000 0.266251 -0.036411
v -0.221000 0.265882 -0.037786
v -0.221000 0.273160 -0.044000
v -0.221000 0.272161 -0.046411
vn 1.0000 0.0000 0.0000
vn 0.0000 0.0000 -1.0000
vn 0.0000 1.0000 0.0000
vn 0.0000 0.0000 1.0000
vn 0.0000 -1.0000 0.0000
vn -0.9914 0.0000 0.1306
vn -0.9239 0.0000 0.3827
vn -0.7934 0.0000 0.6087
vn -0.6087 0.0000 0.7934
vn -0.3827 0.0000 0.9239
vn -0.1306 -0.0000 0.9914
vn 0.1566 0.0000 -0.9877
vn 0.1563 0.0000 -0.9877
vn 0.4538 0.0000 -0.8911
vn 0.7074 0.0000 -0.7068
vn 0.7071 -0.0000 -0.7071
vn 0.8910 -0.0000 -0.4540
vn 0.8911 0.0000 -0.4538
vn 0.9877 -0.0000 -0.1563
vn 0.9877 0.0000 -0.1566
vn -1.0000 0.0000 0.0000
vn -0.9659 0.2589 0.0000
vn -0.9659 0.2591 0.0000
vn -0.7071 0.7071 0.0000
vn -0.2589 0.9659 -0.0000
vn 0.2589 0.9659 0.0000
vn 0.7070 0.7072 -0.0000
vn 0.7072 0.7071 0.0000
vn 0.9659 0.2588 0.0000
vn 0.9660 -0.2587 -0.0000
vn 0.9659 -0.2588 0.0000
vn 0.7071 -0.7071 0.0000
vn 0.2587 -0.9660 0.0000
vn 0.2583 -0.9661 0.0000
vn -0.2587 -0.9660 -0.0000
vn -0.7072 -0.7070 0.0000
vn -0.9659 -0.2589 -0.0000
vn -0.9659 0.2588 -0.0000
vn -0.7070 0.7073 0.0000
vn -0.7072 0.7070 0.0000
vn -0.2587 0.9660 -0.0000
vn -0.2588 0.9659 0.0000
vn 0.7071 0.7071 0.0000
vn 0.9659 0.2589 -0.0000
vn 0.9659 0.2590 0.0000
vn 0.9659 -0.2589 0.0000
vn 0.2586 -0.9660 0.0000
vn 0.2589 -0.9659 -0.0000
vn -0.2588 -0.9659 -0.0000
vn -0.2586 -0.9660 0.0000
vn -0.7071 -0.7071 0.0000
vn -0.9660 -0.2586 0.0000
vn -0.9659 -0.2588 0.0000
vn -0.9660 0.2587 -0.0000
vn -0.7070 0.7072 0.0000
vn -0.2587 0.9659 -0.0000
vn 0.7071 -0.7072 -0.0000
vn 0.7072 -0.7070 0.0000
vn -0.2583 -0.9661 0.0000
vn 0.9660 0.2587 0.0000
vn 0.2588 -0.9659 0.0000
vn 0.0000 0.9660 0.2585
vn -0.0000 0.9659 0.2589
vn 0.0000 0.7071 0.7071
vn 0.0000 0.2585 0.9660
vn 0.0000 -0.2585 0.9660
vn -0.0000 -0.7071 0.7071
vn 0.0000 -0.9658 0.2592
vn 0.0000 -0.9659 0.2589
vn -0.0000 -0.9659 -0.2589
vn 0.0000 -0.7071 -0.7071
vn 0.0000 -0.2587 -0.9660
vn 0.0000 -0.2589 -0.9659
vn -0.0000 0.2589 -0.9659
vn 0.0000 0.2592 -0.9658
vn 0.0000 0.7071 -0.7071
vn -0.0000 0.7070 -0.7072
vn 0.0000 0.9660 -0.2585
vn -0.0000 -0.2589 0.9659
vn 0.0000 -0.7075 0.7067
vn 0.0000 -0.9658 -0.2592
vn 0.0000 -0.2592 -0.9658
vn 0.0000 0.7068 -0.7075
vn 0.0000 0.9660 -0.2586
vn 0.0000 -0.1306 -0.9914
vn 0.0000 -0.3827 -0.9239
vn 0.0000 -0.6087 -0.7934
vn 0.0000 -0.7934 -0.6087
vn 0.0000 -0.9239 -0.3827
vn 0.0000 -0.9914 -0.1306
vn 0.0000 0.1303 -0.9915
vn -0.0000 0.1306 -0.9914
vn 0.0000 0.3827 -0.9239
vn 0.0000 0.6090 -0.7932
vn 0.0000 0.7934 -0.6087
vn 0.0000 0.9240 -0.3823
vn 0.0000 0.9238 -0.3828
vn 0.0000 0.9914 -0.1306
vn 0.9914 0.1306 0.0000
vn 0.9239 0.3826 0.0000
vn 0.7934 0.6087 0.0000
vn 0.6087 0.7934 0.0000
vn 0.3827 0.9239 0.0000
vn 0.1306 0.9914 0.0000
vn 0.9914 -0.1306 0.0000
vn 0.9239 -0.3826 0.0000
vn 0.9239 -0.3827 0.0000
vn 0.7934 -0.6087 0.0000
vn 0.6087 -0.7934 0.0000
vn 0.3827 -0.9239 0.0000
vn 0.1306 -0.9914 0.0000
s off
f 1//1 2//1 3//1
f 3//1 2//1 4//1
f 5//2 6//2 7//2
f 7//2 6//2 8//2
f 9//3 10//3 11//3
f 11//3 10//3 12//3
f 13//4 14//4 15//4
f 16//4 17//4 18//4
f 18//4 17//4 19//4
f 20//4 21//4 11//4
f 11//4 21//4 22//4
f 19//4 23//4 18//4
f 18//4 23//4 24//4
f 18//4 24//4 25//4
f 25//4 24//4 26//4
f 25//4 26//4 27//4
f 28//4 29//4 30//4
f 30//4 29//4 31//4
f 13//4 15//4 32//4
f 32//4 15//4 33//4
f 32//4 33//4 34//4
f 35//4 36//4 12//4
f 12//4 36//4 37//4
f 38//4 39//4 1//4
f 27//4 28//4 25//4
f 25//4 28//4 30//4
f 25//4 30//4 40//4
f 40//4 30//4 41//4
f 40//4 41//4 42//4
f 43//4 44//4 30//4
f 30//4 44//4 45//4
f 30//4 45//4 12//4
f 12//4 45//4 46//4
f 12//4 46//4 35//4
f 11//4 12//4 20//4
f 20//4 12//4 37//4
f 20//4 37//4 13//4
f 13//4 37//4 47//4
f 13//4 47//4 14//4
f 1//4 48//4 38//4
f 38//4 48//4 49//4
f 38//4 49//4 50//4
f 51//4 52//4 39//4
f 39//4 52//4 53//4
f 39//4 53//4 1//4
f 1//4 53//4 54//4
f 1//4 54//4 2//4
f 2//4 54//4 55//4
f 2//4 55//4 56//4
f 56//4 55//4 57//4
f 56//4 57//4 58//4
f 58//4 57//4 59//4
f 41//4 60//4 42//4
f 42//4 60//4 61//4
f 42//4 61//4 59//4
f 59//4 61//4 62//4
f 59//4 62//4 58//4
f 51//4 63//4 52//4
f 52//4 63//4 64//4
f 52//4 64//4 65//4
f 65//4 64//4 66//4
f 31//4 67//4 30//4
f 30//4 67//4 68//4
f 30//4 68//4 69//4
f 49//4 70//4 50//4
f 50//4 70//4 71//4
f 50//4 71//4 22//4
f 22//4 71//4 72//4
f 22//4 72//4 11//4
f 16//4 65//4 17//4
f 17//4 65//4 66//4
f 17//4 66//4 69//4
f 69//4 66//4 32//4
f 69//4 32//4 30//4
f 30//4 32//4 34//4
f 30//4 34//4 43//4
f 41//5 30//5 73//5
f 73//5 30//5 74//5
f 75//2 76//2 4//2
f 4//2 76//2 77//2
f 78//2 79//2 80//2
f 77//2 81//2 82//2
f 82//2 81//2 83//2
f 84//2 85//2 86//2
f 4//2 87//2 75//2
f 75//2 87//2 88//2
f 75//2 88//2 89//2
f 89//2 88//2 90//2
f 89//2 90//2 91//2
f 91//2 90//2 92//2
f 93//2 94//2 95//2
f 95//2 94//2 96//2
f 85//2 84//2 97//2
f 97//2 84//2 98//2
f 97//2 98//2 80//2
f 77//2 82//2 4//2
f 4//2 82//2 99//2
f 4//2 99//2 3//2
f 3//2 99//2 100//2
f 3//2 100//2 101//2
f 101//2 100//2 102//2
f 101//2 102//2 103//2
f 103//2 102//2 104//2
f 103//2 104//2 105//2
f 9//2 106//2 93//2
f 104//2 94//2 105//2
f 105//2 94//2 93//2
f 105//2 93//2 107//2
f 107//2 93//2 106//2
f 78//2 80//2 108//2
f 108//2 80//2 109//2
f 108//2 109//2 110//2
f 93//2 111//2 9//2
f 9//2 111//2 112//2
f 9//2 112//2 10//2
f 10//2 112//2 113//2
f 10//2 113//2 114//2
f 73//2 115//2 116//2
f 115//2 73//2 117//2
f 117//2 73//2 74//2
f 117//2 74//2 118//2
f 86//2 82//2 84//2
f 84//2 82//2 83//2
f 84//2 83//2 119//2
f 119//2 83//2 120//2
f 92//2 121//2 91//2
f 91//2 121//2 73//2
f 91//2 73//2 122//2
f 122//2 73//2 116//2
f 114//2 108//2 10//2
f 10//2 108//2 110//2
f 10//2 110//2 74//2
f 74//2 110//2 123//2
f 74//2 123//2 118//2
f 96//2 124//2 95//2
f 95//2 124//2 125//2
f 95//2 125//2 126//2
f 126//2 125//2 97//2
f 126//2 97//2 127//2
f 127//2 97//2 80//2
f 127//2 80//2 128//2
f 128//2 80//2 79//2
f 115//2 129//2 116//2
f 116//2 129//2 130//2
f 116//2 130//2 131//2
f 131//2 130//2 119//2
f 131//2 119//2 132//2
f 132//2 119//2 120//2
f 133//3 134//3 135//3
f 135//3 134//3 136//3
f 135//3 136//3 137//3
f 12//3 10//3 138//3
f 138//3 10//3 139//3
f 138//3 139//3 140//3
f 140//3 139//3 141//3
f 140//3 141//3 142//3
f 142//3 141//3 137//3
f 142//3 137//3 143//3
f 143//3 137//3 136//3
f 134//6 144//6 145//6
f 134//6 145//6 136//6
f 136//7 145//7 146//7
f 136//7 146//7 143//7
f 143//8 146//8 147//8
f 143//8 147//8 142//8
f 142//9 147//9 148//9
f 142//9 148//9 140//9
f 140//10 148//10 149//10
f 140//10 149//10 138//10
f 138//11 149//11 30//11
f 138//11 30//11 150//11
f 74//5 30//5 151//5
f 151//5 30//5 149//5
f 151//5 149//5 152//5
f 144//5 153//5 145//5
f 145//5 153//5 154//5
f 145//5 154//5 146//5
f 146//5 154//5 155//5
f 146//5 155//5 147//5
f 147//5 155//5 152//5
f 147//5 152//5 148//5
f 148//5 152//5 149//5
f 10//12 74//12 139//12
f 139//13 74//13 151//13
f 139//14 151//14 141//14
f 141//14 151//14 152//14
f 141//15 152//15 137//15
f 137//16 152//16 155//16
f 137//17 155//17 135//17
f 135//18 155//18 154//18
f 135//19 154//19 133//19
f 133//20 154//20 153//20
f 156//3 134//3 157//3
f 157//3 134//3 133//3
f 158//21 159//21 160//21
f 160//21 159//21 161//21
f 160//21 161//21 162//21
f 163//21 164//21 6//21
f 6//21 164//21 159//21
f 6//21 159//21 165//21
f 165//21 159//21 158//21
f 162//21 161//21 166//21
f 166//21 161//21 167//21
f 166//21 167//21 156//21
f 156//21 167//21 168//21
f 156//21 168//21 134//21
f 168//21 169//21 134//21
f 134//21 169//21 170//21
f 134//21 170//21 171//21
f 172//21 173//21 144//21
f 144//21 173//21 174//21
f 144//21 174//21 175//21
f 5//21 176//21 6//21
f 6//21 176//21 177//21
f 6//21 177//21 163//21
f 163//21 177//21 178//21
f 163//21 178//21 179//21
f 179//21 178//21 180//21
f 179//21 180//21 181//21
f 174//21 182//21 175//21
f 175//21 182//21 183//21
f 175//21 183//21 184//21
f 184//21 183//21 185//21
f 184//21 185//21 186//21
f 5//21 187//21 176//21
f 176//21 187//21 188//21
f 176//21 188//21 185//21
f 185//21 188//21 189//21
f 185//21 189//21 186//21
f 172//21 144//21 190//21
f 190//21 144//21 134//21
f 190//21 134//21 191//21
f 191//21 134//21 171//21
f 191//21 171//21 180//21
f 180//21 171//21 192//21
f 180//21 192//21 181//21
f 193//5 153//5 175//5
f 175//5 153//5 144//5
f 194//1 195//1 196//1
f 197//1 133//1 198//1
f 198//1 133//1 153//1
f 198//1 153//1 199//1
f 197//1 200//1 133//1
f 133//1 200//1 201//1
f 133//1 201//1 157//1
f 202//1 203//1 204//1
f 204//1 203//1 205//1
f 204//1 205//1 206//1
f 207//1 194//1 8//1
f 8//1 194//1 196//1
f 8//1 196//1 7//1
f 7//1 196//1 203//1
f 7//1 203//1 208//1
f 208//1 203//1 202//1
f 206//1 205//1 209//1
f 209//1 205//1 210//1
f 209//1 210//1 193//1
f 193//1 210//1 211//1
f 193//1 211//1 153//1
f 153//1 211//1 212//1
f 153//1 212//1 213//1
f 214//1 215//1 216//1
f 216//1 215//1 207//1
f 216//1 207//1 217//1
f 217//1 207//1 8//1
f 213//1 218//1 153//1
f 153//1 218//1 219//1
f 153//1 219//1 199//1
f 199//1 219//1 220//1
f 199//1 220//1 221//1
f 221//1 220//1 222//1
f 221//1 222//1 195//1
f 195//1 222//1 223//1
f 195//1 223//1 196//1
f 201//1 224//1 157//1
f 157//1 224//1 225//1
f 157//1 225//1 226//1
f 226//1 225//1 215//1
f 226//1 215//1 227//1
f 227//1 215//1 214//1
f 55//22 76//22 57//22
f 57//23 76//23 75//23
f 57//24 75//24 59//24
f 59//24 75//24 89//24
f 59//25 89//25 42//25
f 42//25 89//25 91//25
f 42//26 91//26 40//26
f 40//26 91//26 122//26
f 40//27 122//27 25//27
f 25//28 122//28 116//28
f 25//29 116//29 18//29
f 18//29 116//29 131//29
f 18//30 131//30 16//30
f 16//31 131//31 132//31
f 16//32 132//32 65//32
f 65//32 132//32 120//32
f 65//33 120//33 52//33
f 52//34 120//34 83//34
f 52//35 83//35 53//35
f 53//35 83//35 81//35
f 53//36 81//36 54//36
f 54//36 81//36 77//36
f 54//37 77//37 55//37
f 55//37 77//37 76//37
f 15//38 95//38 33//38
f 33//38 95//38 126//38
f 33//39 126//39 34//39
f 34//40 126//40 127//40
f 34//41 127//41 43//41
f 43//42 127//42 128//42
f 43//26 128//26 44//26
f 44//26 128//26 79//26
f 44//43 79//43 45//43
f 45//43 79//43 78//43
f 45//44 78//44 46//44
f 46//45 78//45 108//45
f 46//46 108//46 35//46
f 35//46 108//46 114//46
f 35//32 114//32 36//32
f 36//32 114//32 113//32
f 36//47 113//47 37//47
f 37//48 113//48 112//48
f 37//49 112//49 47//49
f 47//50 112//50 111//50
f 47//51 111//51 14//51
f 14//51 111//51 93//51
f 14//52 93//52 15//52
f 15//53 93//53 95//53
f 24//54 119//54 26//54
f 26//38 119//38 130//38
f 26//55 130//55 27//55
f 27//40 130//40 129//40
f 27//56 129//56 28//56
f 28//42 129//42 115//42
f 28//26 115//26 29//26
f 29//26 115//26 117//26
f 29//43 117//43 31//43
f 31//43 117//43 118//43
f 31//44 118//44 67//44
f 67//44 118//44 123//44
f 67//46 123//46 68//46
f 68//46 123//46 110//46
f 68//57 110//57 69//57
f 69//58 110//58 109//58
f 69//33 109//33 17//33
f 17//33 109//33 80//33
f 17//35 80//35 19//35
f 19//59 80//59 98//59
f 19//51 98//51 23//51
f 23//51 98//51 84//51
f 23//52 84//52 24//52
f 24//53 84//53 119//53
f 39//22 100//22 51//22
f 51//22 100//22 99//22
f 51//24 99//24 63//24
f 63//24 99//24 82//24
f 63//25 82//25 64//25
f 64//25 82//25 86//25
f 64//26 86//26 66//26
f 66//26 86//26 85//26
f 66//27 85//27 32//27
f 32//28 85//28 97//28
f 32//60 97//60 13//60
f 13//29 97//29 125//29
f 13//30 125//30 20//30
f 20//31 125//31 124//31
f 20//32 124//32 21//32
f 21//32 124//32 96//32
f 21//61 96//61 22//61
f 22//61 96//61 94//61
f 22//49 94//49 50//49
f 50//50 94//50 104//50
f 50//36 104//36 38//36
f 38//36 104//36 102//36
f 38//37 102//37 39//37
f 39//37 102//37 100//37
f 182//62 211//62 183//62
f 183//63 211//63 210//63
f 183//64 210//64 185//64
f 185//64 210//64 205//64
f 185//65 205//65 176//65
f 176//65 205//65 203//65
f 176//66 203//66 177//66
f 177//66 203//66 196//66
f 177//67 196//67 178//67
f 178//67 196//67 223//67
f 178//68 223//68 180//68
f 180//69 223//69 222//69
f 180//70 222//70 191//70
f 191//70 222//70 220//70
f 191//71 220//71 190//71
f 190//71 220//71 219//71
f 190//72 219//72 172//72
f 172//73 219//73 218//73
f 172//74 218//74 173//74
f 173//75 218//75 213//75
f 173//76 213//76 174//76
f 174//77 213//77 212//77
f 174//78 212//78 182//78
f 182//78 212//78 211//78
f 179//62 221//62 163//62
f 163//63 221//63 195//63
f 163//64 195//64 164//64
f 164//64 195//64 194//64
f 164//65 194//65 159//65
f 159//65 194//65 207//65
f 159//66 207//66 161//66
f 161//79 207//79 215//79
f 161//67 215//67 167//67
f 167//80 215//80 225//80
f 167//68 225//68 168//68
f 168//68 225//68 224//68
f 168//81 224//81 169//81
f 169//81 224//81 201//81
f 169//71 201//71 170//71
f 170//71 201//71 200//71
f 170//82 200//82 171//82
f 171//82 200//82 197//82
f 171//74 197//74 192//74
f 192//75 197//75 198//75
f 192//83 198//83 181//83
f 181//77 198//77 199//77
f 181//84 199//84 179//84
f 179//78 199//78 221//78
f 5//85 7//85 208//85
f 5//85 208//85 187//85
f 187//86 208//86 202//86
f 187//86 202//86 188//86
f 188//87 202//87 204//87
f 188//87 204//87 189//87
f 189//88 204//88 206//88
f 189//88 206//88 186//88
f 186//89 206//89 209//89
f 186//89 209//89 184//89
f 184//90 209//90 193//90
f 184//90 193//90 175//90
f 8//91 6//91 165//91
f 8//92 165//92 217//92
f 217//93 165//93 158//93
f 217//93 158//93 216//93
f 216//94 158//94 160//94
f 216//94 160//94 214//94
f 214//95 160//95 162//95
f 214//95 162//95 227//95
f 227//96 162//96 166//96
f 227//97 166//97 226//97
f 226//98 166//98 156//98
f 226//98 156//98 157//98
f 1//99 3//99 101//99
f 1//99 101//99 48//99
f 48//100 101//100 103//100
f 48//100 103//100 49//100
f 49//101 103//101 105//101
f 49//101 105//101 70//101
f 70//102 105//102 107//102
f 70//102 107//102 71//102
f 71//103 107//103 106//103
f 71//103 106//103 72//103
f 72//104 106//104 9//104
f 72//104 9//104 11//104
f 4//105 2//105 56//105
f 4//105 56//105 87//105
f 87//106 56//106 58//106
f 87//107 58//107 88//107
f 88//108 58//108 62//108
f 88//108 62//108 90//108
f 90//109 62//109 61//109
f 90//109 61//109 92//109
f 92//110 61//110 60//110
f 92//110 60//110 121//110
f 121//111 60//111 41//111
f 121//111 41//111 73//111
