# Blender v3.6.8 OBJ File: 'propeller-case.blend'
# www.blender.org
o rose_thruster_small_duct_hydro
v -0.045423 -0.025546 0.111000
v -0.002099 -0.025546 0.111000
v -0.002099 0.025546 0.111000
v -0.045423 0.025546 0.111000
v 0.068000 0.094685 0.043603
v 0.068000 0.091143 0.014197
v 0.068000 0.090924 -0.018118
v 0.068000 0.104067 -0.006029
v 0.068000 0.102428 0.019364
v 0.068000 0.086963 -0.057833
v 0.068000 0.099504 -0.031067
v 0.068000 -0.091547 0.012069
v 0.068000 -0.094685 0.043603
v 0.068000 -0.102428 0.019365
v 0.068000 -0.104067 -0.006029
v 0.068000 -0.097737 -0.037161
v 0.068000 -0.091143 -0.014197
v 0.068000 -0.084344 0.037347
v 0.068000 -0.081300 0.065242
v 0.068000 -0.071774 0.057942
v 0.068000 -0.033096 0.086102
v 0.068000 -0.041082 0.095804
v 0.068000 -0.054292 0.074573
v 0.068000 -0.063072 0.082996
v 0.068000 0.054292 0.074573
v 0.068000 0.041081 0.095804
v 0.068000 0.033096 0.086103
v 0.068000 0.012661 0.103663
v 0.068000 0.000002 0.092767
v 0.068000 -0.016676 0.102894
v 0.068000 0.084344 0.037347
v 0.068000 0.081301 0.065243
v 0.068000 0.071774 0.057942
v 0.068000 0.063072 0.082996
v 0.068000 -0.084344 -0.037347
v 0.068000 -0.081191 -0.065439
v 0.068000 -0.071774 -0.057942
v 0.068000 -0.028475 -0.100252
v 0.068000 -0.033096 -0.086102
v 0.068000 -0.054292 -0.074573
v 0.068000 -0.057097 -0.087596
v 0.068000 0.034281 -0.098435
v 0.068000 0.044073 -0.081034
v 0.068000 0.021551 -0.089692
v 0.068000 0.002758 -0.104580
v 0.068000 -0.006116 -0.092193
v 0.068000 0.078736 -0.048057
v 0.068000 0.062344 -0.083942
v 0.068000 0.063580 -0.066831
v -0.024000 -0.025546 0.105964
v -0.002100 -0.025318 0.105131
v -0.002099 -0.025546 0.111000
v -0.045423 -0.025546 0.111000
v -0.045423 -0.025546 0.096000
v -0.024000 -0.025546 0.096000
v -0.002099 0.025546 0.111000
v -0.002100 -0.025318 0.105131
v -0.002099 -0.000000 0.107907
v -0.002100 0.025430 0.105111
v -0.002099 -0.025546 0.111000
v -0.045423 0.025546 0.111000
v -0.002100 0.025430 0.105111
v -0.024000 0.025546 0.105964
v -0.024000 0.025546 0.096000
v -0.045423 0.025546 0.096000
v -0.024000 -0.025546 0.096000
v -0.024000 -0.005178 0.092523
v -0.024000 -0.036773 0.084599
v -0.023998 -0.028011 -0.105251
v -0.024000 -0.036774 -0.084599
v -0.024000 -0.028000 -0.095000
v -0.024000 0.019468 0.090168
v -0.024000 0.049258 0.098197
v -0.024000 0.042257 0.081998
v -0.024000 0.028000 -0.095000
v -0.024000 0.004973 -0.093439
v -0.024000 0.016097 -0.090732
v -0.024000 -0.004971 -0.092942
v -0.024000 -0.005000 0.096000
v -0.024000 0.036773 -0.084599
v -0.024000 0.044182 -0.099915
v -0.023998 0.028011 -0.105251
v -0.024000 0.025546 0.096000
v -0.024000 0.025546 0.105964
v -0.024000 0.004949 0.093250
v -0.024000 0.094651 0.054560
v -0.024000 0.094774 -0.055288
v -0.024000 0.091838 -0.009089
v -0.024000 0.089913 0.022035
v -0.024000 -0.106987 -0.022113
v -0.024000 -0.109169 0.004195
v -0.024000 -0.104975 0.030261
v -0.024000 -0.094310 -0.056221
v -0.024000 -0.094650 0.054562
v -0.024000 -0.091707 -0.009935
v -0.024000 -0.089674 0.024143
v -0.024000 -0.078796 0.075673
v -0.024000 -0.074299 0.054668
v -0.024000 -0.049258 0.098198
v -0.024000 -0.057517 0.072117
v -0.024000 -0.025546 0.105964
v -0.024000 -0.085964 -0.033454
v -0.024000 -0.068759 -0.085018
v -0.024000 -0.074299 -0.054669
v -0.024000 -0.057517 -0.072117
v -0.024000 -0.044182 -0.099914
v -0.024000 0.057517 -0.072117
v -0.024000 0.069567 -0.084425
v -0.024000 0.074299 -0.054668
v -0.024000 0.085964 -0.033454
v -0.024000 0.062135 0.068179
v -0.024000 0.078796 0.075674
v -0.024000 0.077732 0.049664
v -0.024000 0.104975 0.030261
v -0.024000 0.106987 -0.022113
v -0.024000 0.109169 0.004195
v 0.068000 0.012661 0.103663
v -0.002100 0.025430 0.105111
v -0.002099 -0.000000 0.107907
v 0.068000 0.041081 0.095804
v -0.024000 0.049258 0.098197
v 0.068000 0.063072 0.082996
v -0.024000 0.078796 0.075674
v 0.068000 0.081301 0.065243
v -0.024000 0.094651 0.054560
v 0.068000 0.094685 0.043603
v -0.024000 0.104975 0.030261
v 0.068000 0.102428 0.019364
v -0.024000 0.109169 0.004195
v 0.068000 0.104067 -0.006029
v -0.024000 0.106987 -0.022113
v 0.068000 0.099504 -0.031067
v -0.024000 0.094774 -0.055288
v 0.068000 0.086963 -0.057833
v -0.024000 0.044182 -0.099915
v -0.024000 0.069567 -0.084425
v 0.068000 0.062344 -0.083942
v 0.068000 0.034281 -0.098435
v 0.068000 0.002758 -0.104580
v -0.023993 0.010379 -0.108758
v -0.023998 0.028011 -0.105251
v -0.024000 0.025546 0.105964
v 0.068000 -0.016676 0.102894
v -0.023997 -0.015164 -0.107982
v 0.068000 -0.028475 -0.100252
v 0.068000 -0.057097 -0.087596
v -0.024000 -0.044182 -0.099914
v -0.024000 -0.068759 -0.085018
v 0.068000 -0.081191 -0.065439
v -0.024000 -0.094310 -0.056221
v 0.068000 -0.097737 -0.037161
v -0.024000 -0.106987 -0.022113
v 0.068000 -0.104067 -0.006029
v -0.024000 -0.109169 0.004195
v 0.068000 -0.102428 0.019365
v -0.024000 -0.104975 0.030261
v 0.068000 -0.094685 0.043603
v -0.024000 -0.094650 0.054562
v 0.068000 -0.081300 0.065242
v -0.024000 -0.078796 0.075673
v 0.068000 -0.063072 0.082996
v -0.024000 -0.049258 0.098198
v 0.068000 -0.041082 0.095804
v -0.002100 -0.025318 0.105131
v -0.024000 -0.025546 0.105964
v -0.023998 -0.028011 -0.105251
v -0.045000 0.027107 -0.106810
v -0.045000 -0.027592 -0.105826
v -0.045000 -0.027592 -0.105826
v -0.045000 -0.028000 -0.095000
v -0.045000 -0.005000 -0.095000
v -0.045000 0.005000 -0.095000
v -0.045000 0.028000 -0.095000
v -0.045000 0.027107 -0.106810
v -0.045000 -0.004952 -0.028285
v -0.045000 0.004992 -0.028097
v -0.024000 -0.028000 -0.095000
v -0.045000 -0.028000 -0.095000
v -0.023998 -0.028011 -0.105251
v -0.045000 -0.027592 -0.105826
v -0.024000 0.028000 -0.095000
v -0.023998 0.028011 -0.105251
v -0.045000 0.028000 -0.095000
v -0.045000 0.027107 -0.106810
v -0.045000 0.028000 -0.095000
v -0.045000 0.005000 -0.095000
v -0.024000 0.028000 -0.095000
v -0.024000 0.004973 -0.093439
v -0.045000 -0.005000 -0.095000
v -0.045000 -0.028000 -0.095000
v -0.024000 -0.004971 -0.092942
v -0.024000 -0.028000 -0.095000
v -0.045000 -0.004952 -0.028285
v -0.045000 -0.005000 -0.095000
v -0.024000 -0.004971 -0.092942
v -0.015000 -0.005000 -0.091864
v -0.015000 -0.004977 -0.028099
v -0.045000 0.005000 -0.095000
v -0.045000 0.004992 -0.028097
v -0.024000 0.004973 -0.093439
v -0.015000 0.004906 -0.028289
v -0.015000 0.004982 -0.091906
v -0.045423 -0.025546 0.111000
v -0.045423 -0.025546 0.096000
v -0.045423 0.025546 0.096000
v -0.045000 0.005000 0.096000
v -0.045000 0.004961 0.028221
v -0.045000 -0.004988 0.028119
v -0.045000 -0.005000 0.096000
v -0.015000 0.004977 0.028099
v -0.045000 0.004961 0.028221
v -0.015000 0.005000 0.091864
v -0.024000 0.004949 0.093250
v -0.045000 0.005000 0.096000
v -0.045000 -0.005000 0.096000
v -0.045000 -0.004988 0.028119
v -0.024000 -0.005000 0.096000
v -0.024000 -0.005178 0.092523
v -0.015000 -0.004906 0.028289
v -0.015000 -0.004986 0.091913
v -0.045423 -0.025546 0.096000
v -0.024000 -0.005000 0.096000
v -0.024000 -0.025546 0.096000
v -0.045000 -0.005000 0.096000
v -0.045423 0.025546 0.096000
v -0.045000 0.005000 0.096000
v -0.024000 0.025546 0.096000
v -0.024000 0.004949 0.093250
v -0.015000 -0.004986 0.091913
v -0.015000 -0.004906 0.028289
v -0.015000 0.004977 0.028099
v -0.015000 0.005000 0.091864
v -0.015000 -0.004977 -0.028099
v -0.015000 0.004982 -0.091906
v -0.015000 0.004906 -0.028289
v -0.015000 -0.005000 -0.091864
v 0.068000 0.021551 -0.089692
v -0.024000 0.016097 -0.090732
v 0.068000 -0.006116 -0.092193
v -0.024000 0.036773 -0.084599
v 0.068000 0.044073 -0.081034
v -0.024000 0.057517 -0.072117
v 0.068000 0.063580 -0.066831
v -0.024000 0.074299 -0.054668
v 0.068000 0.078736 -0.048057
v -0.024000 0.085964 -0.033454
v 0.068000 0.090924 -0.018118
v -0.024000 0.091838 -0.009089
v -0.024000 0.089913 0.022035
v 0.068000 0.091143 0.014197
v 0.068000 0.084344 0.037347
v -0.024000 0.077732 0.049664
v 0.068000 0.071774 0.057942
v -0.024000 0.062135 0.068179
v 0.068000 0.054292 0.074573
v -0.024000 0.042257 0.081998
v 0.068000 0.033096 0.086103
v -0.024000 0.019468 0.090168
v 0.068000 0.000002 0.092767
v -0.024000 0.004973 -0.093439
v -0.015000 0.004982 -0.091906
v -0.015000 -0.004986 0.091913
v -0.015000 0.005000 0.091864
v 0.068000 0.000002 0.092767
v 0.068000 0.000002 0.092767
v -0.024000 0.004949 0.093250
v 0.068000 -0.033096 0.086102
v -0.024000 -0.005178 0.092523
v 0.068000 0.000002 0.092767
v -0.024000 -0.036773 0.084599
v 0.068000 -0.054292 0.074573
v -0.024000 -0.057517 0.072117
v 0.068000 -0.071774 0.057942
v -0.024000 -0.074299 0.054668
v 0.068000 -0.084344 0.037347
v -0.024000 -0.089674 0.024143
v 0.068000 -0.091547 0.012069
v 0.068000 -0.091143 -0.014197
v -0.024000 -0.085964 -0.033454
v -0.024000 -0.091707 -0.009935
v 0.068000 -0.084344 -0.037347
v -0.024000 -0.074299 -0.054669
v 0.068000 -0.071774 -0.057942
v -0.024000 -0.057517 -0.072117
v 0.068000 -0.054292 -0.074573
v -0.024000 -0.036774 -0.084599
v 0.068000 -0.033096 -0.086102
v -0.024000 -0.004971 -0.092942
v 0.068000 -0.006116 -0.092193
v -0.015000 -0.005000 -0.091864
v 0.068000 -0.006116 -0.092193
v 0.068000 0.000002 0.092767
v -0.045000 -0.004952 -0.028285
v -0.081494 -0.009483 -0.027010
v -0.081501 0.000000 -0.028616
v -0.015000 -0.004977 -0.028099
v 0.066920 -0.012119 -0.041045
v -0.045000 -0.004988 0.028119
v -0.081497 -0.000014 0.028621
v -0.081484 -0.011515 0.026360
v 0.066920 -0.009895 0.041660
v -0.015000 -0.004906 0.028289
v -0.045000 0.004961 0.028221
v 0.066920 -0.034410 0.026619
v -0.081496 -0.021052 0.019393
v -0.081505 -0.027133 0.009456
v 0.066920 -0.042719 0.000706
v -0.081499 -0.028165 -0.007116
v 0.066920 -0.035369 -0.025330
v -0.081506 -0.019438 -0.021162
v -0.015000 0.004906 -0.028289
v 0.066920 0.009895 -0.041660
v -0.081494 0.009483 0.027010
v -0.015000 0.004977 0.028099
v 0.066920 0.012119 0.041045
v -0.045000 0.004992 -0.028097
v -0.081484 0.011515 -0.026360
v 0.066920 0.034410 -0.026619
v -0.081523 0.025561 -0.014227
v -0.081523 0.025561 -0.014227
v 0.066920 0.042719 -0.000706
v -0.081499 0.028165 0.007116
v 0.066920 0.035369 0.025330
v -0.081506 0.019438 0.021162
v -0.092522 -0.008884 -0.011072
v -0.092526 -0.013693 0.003721
v -0.092506 -0.004304 0.013165
v -0.092506 0.004304 -0.013165
v -0.092522 0.008884 0.011072
v -0.092526 0.013693 -0.003721
v -0.081501 0.000000 -0.028616
v -0.092522 -0.008884 -0.011072
v -0.092506 0.004304 -0.013165
v -0.081494 -0.009483 -0.027010
v -0.081506 -0.019438 -0.021162
v -0.081499 -0.028165 -0.007116
v -0.092526 -0.013693 0.003721
v -0.081505 -0.027133 0.009456
v -0.081496 -0.021052 0.019393
v -0.081484 -0.011515 0.026360
v -0.092506 -0.004304 0.013165
v -0.081497 -0.000014 0.028621
v -0.092522 0.008884 0.011072
v -0.081494 0.009483 0.027010
v -0.081506 0.019438 0.021162
v -0.081499 0.028165 0.007116
v -0.092526 0.013693 -0.003721
v -0.081523 0.025561 -0.014227
v -0.081484 0.011515 -0.026360
v -0.045000 0.004992 -0.028097
vn 0.0000 0.0000 1.0000
vn 0.0000 0.9998 -0.0197
vn -1.0000 0.0000 0.0000
vn 0.1252 -0.5188 0.8457
vn -0.0820 0.9490 -0.3043
vn 0.0228 -0.1364 0.9904
vn 1.0000 0.0000 0.0000
vn 0.0005 -1.0000 -0.0022
vn 0.0089 -0.9992 -0.0388
vn 0.0076 -0.9994 -0.0332
vn 0.0000 -1.0000 0.0000
vn 1.0000 0.0000 -0.0002
vn 1.0000 -0.0004 0.0032
vn 0.0004 1.0000 0.0000
vn 0.0004 0.9999 -0.0168
vn 0.0039 0.9999 0.0168
vn 0.0000 1.0000 0.0000
vn -1.0000 -0.0000 -0.0001
vn -1.0000 -0.0001 -0.0001
vn -1.0000 0.0001 -0.0001
vn -1.0000 -0.0001 -0.0000
vn -1.0000 0.0001 -0.0000
vn 0.0579 0.1260 0.9903
vn 0.0624 0.2717 0.9604
vn 0.0459 -0.0014 0.9989
vn 0.0579 0.3820 0.9223
vn 0.0501 0.4627 0.8851
vn 0.0619 0.6051 0.7938
vn 0.0454 0.7103 0.7025
vn 0.0611 0.7785 0.6247
vn 0.0479 0.8653 0.4989
vn 0.0612 0.9066 0.4175
vn 0.0479 0.9598 0.2767
vn 0.0613 0.9808 0.1854
vn 0.0478 0.9981 0.0384
vn 0.0614 0.9964 -0.0578
vn 0.0463 0.9756 -0.2147
vn 0.0616 0.9510 -0.3031
vn 0.0473 0.8599 -0.5083
vn 0.0616 0.8245 -0.5625
vn 0.0493 0.4184 -0.9069
vn 0.0480 0.6459 -0.7619
vn 0.0611 0.6013 -0.7967
vn 0.0617 0.3268 -0.9431
vn 0.0608 0.0282 -0.9977
vn -0.0065 0.0614 -0.9981
vn 0.0577 0.2328 -0.9708
vn 0.0386 0.3110 0.9496
vn 0.0578 -0.1581 0.9857
vn -0.0043 -0.1026 -0.9947
vn 0.0636 -0.2722 -0.9601
vn 0.0637 -0.5469 -0.8347
vn 0.0483 -0.4157 -0.9082
vn 0.0441 -0.6394 -0.7676
vn 0.0657 -0.7754 -0.6280
vn 0.0431 -0.8561 -0.5151
vn 0.0659 -0.9328 -0.3543
vn 0.0447 -0.9757 -0.2147
vn 0.0629 -0.9958 -0.0668
vn 0.0478 -0.9981 0.0384
vn 0.0613 -0.9808 0.1854
vn 0.0479 -0.9598 0.2767
vn 0.0612 -0.9066 0.4175
vn 0.0479 -0.8653 0.4989
vn 0.0611 -0.7785 0.6247
vn 0.0454 -0.7103 0.7025
vn 0.0619 -0.6051 0.7937
vn 0.0490 -0.4631 0.8849
vn 0.0584 -0.3883 0.9197
vn 0.0579 -0.2635 0.9629
vn 0.0394 -0.3110 0.9496
vn 0.0417 -0.2429 -0.9691
vn -0.0288 0.0746 -0.9968
vn -0.0516 -0.0854 -0.9950
vn 0.0000 -1.0000 0.0011
vn -0.0134 -0.9996 -0.0265
vn -0.0057 -0.9999 -0.0106
vn -0.0189 -0.9991 -0.0377
vn 0.0000 1.0000 0.0011
vn -0.0120 0.9997 -0.0235
vn -0.0265 0.9982 -0.0533
vn -0.0373 0.9965 -0.0753
vn -0.0392 0.0358 0.9986
vn -0.0349 0.0319 0.9989
vn -0.0739 0.0674 0.9950
vn -0.0975 0.0000 0.9952
vn -0.0460 -0.0472 0.9978
vn -0.0517 -0.0420 0.9978
vn 0.0000 -0.0890 0.9960
vn -0.0006 -1.0000 0.0003
vn 0.0013 -1.0000 0.0007
vn -0.0016 -1.0000 0.0027
vn -0.0093 -0.9986 0.0527
vn -0.0008 -1.0000 0.0004
vn 0.0013 1.0000 0.0001
vn 0.0026 1.0000 0.0005
vn 0.0005 1.0000 0.0006
vn 0.0025 1.0000 0.0007
vn -0.0012 1.0000 0.0012
vn -0.0005 1.0000 -0.0004
vn -0.0004 1.0000 -0.0002
vn 0.0318 0.9705 0.2389
vn 0.0007 0.9998 0.0188
vn 0.0024 1.0000 -0.0006
vn 0.0000 -1.0000 -0.0002
vn 0.0006 -1.0000 -0.0026
vn -0.0317 -0.9995 0.0096
vn -0.0911 -0.9951 0.0370
vn 0.0044 -1.0000 -0.0036
vn 0.0404 -0.9544 0.2958
vn 0.0000 0.0000 -1.0000
vn -0.0214 0.0219 -0.9995
vn -0.0657 0.0672 -0.9956
vn -0.1284 0.1312 -0.9830
vn -0.0059 -0.2261 0.9741
vn -0.0360 -0.2208 0.9747
vn -0.0056 -0.0845 0.9964
vn 0.0057 -0.4027 0.9153
vn -0.0065 -0.4779 0.8784
vn 0.0065 -0.6235 0.7818
vn -0.0064 -0.6893 0.7245
vn 0.0064 -0.8054 0.5926
vn -0.0088 -0.8605 0.5094
vn 0.0080 -0.9318 0.3630
vn -0.0091 -0.9809 0.1943
vn 0.0087 -0.9963 0.0855
vn 0.0082 -0.9719 -0.2352
vn -0.0084 -0.9904 -0.1383
vn -0.0076 -0.9140 -0.4056
vn 0.0086 -0.8479 -0.5300
vn -0.0071 -0.7781 -0.6281
vn 0.0071 -0.6736 -0.7390
vn -0.0071 -0.5886 -0.8084
vn 0.0071 -0.4581 -0.8889
vn -0.0097 -0.3431 -0.9392
vn -0.0049 -0.2657 -0.9641
vn -0.0143 -0.1985 -0.9800
vn -0.1631 -0.2333 0.9586
vn -0.0367 -0.1022 0.9941
vn 0.0106 -0.0049 -0.9999
vn 0.0518 0.9274 0.3706
vn -0.0163 -0.2076 -0.9781
vn -0.0051 0.3424 -0.9395
vn 0.0029 0.2332 -0.9724
vn -0.0085 0.1974 -0.9803
vn 0.0047 0.3840 -0.9233
vn -0.0040 0.5885 -0.8085
vn 0.0041 0.6236 -0.7818
vn -0.0041 0.7780 -0.6282
vn 0.0076 0.8146 -0.5800
vn -0.0081 0.9145 -0.4045
vn 0.0102 0.9656 -0.2600
vn -0.0084 0.9918 -0.1272
vn -0.0044 0.9887 0.1501
vn 0.0042 0.9319 0.3626
vn 0.0074 0.9957 0.0921
vn -0.0042 0.9143 0.4049
vn 0.0041 0.8055 0.5926
vn -0.0041 0.7780 0.6282
vn 0.0041 0.6236 0.7818
vn -0.0040 0.5885 0.8085
vn 0.0045 0.3889 0.9213
vn -0.0038 0.3524 0.9358
vn 0.0036 0.2475 0.9689
vn -0.0052 0.2202 0.9754
vn 0.0040 0.0042 1.0000
vn -0.0131 -0.9965 0.0823
vn 0.0492 -0.8946 0.4442
vn 0.0065 -0.2058 -0.9786
vn -0.0549 -0.3187 -0.9463
vn -0.0111 0.0132 -0.9999
vn -0.0991 0.4433 -0.8909
vn 0.6018 -0.2263 -0.7659
vn -0.0603 0.2017 0.9776
vn -0.0104 -0.0127 0.9999
vn -0.0597 -0.3771 0.9243
vn 0.6007 -0.1877 0.7771
vn -0.0695 0.7135 0.6972
vn 0.0055 0.1914 0.9815
vn 0.6033 -0.6274 0.4924
vn -0.0986 -0.7297 0.6766
vn -0.1029 -0.9487 0.2990
vn 0.6154 -0.7881 0.0143
vn -0.1064 -0.9646 -0.2415
vn 0.6042 -0.6454 -0.4674
vn -0.0999 -0.6912 -0.7157
vn -0.0698 -0.7124 -0.6983
vn 0.6133 0.1794 -0.7692
vn -0.0542 0.3183 0.9464
vn -0.0991 -0.4437 0.8907
vn 0.6018 0.2263 0.7659
vn -0.0014 0.1589 -0.9873
vn -0.0116 0.4370 -0.8994
vn 0.0004 -0.9411 -0.3381
vn -0.0809 0.5391 -0.8384
vn -0.1054 0.4332 -0.8951
vn -0.1016 0.6501 -0.7530
vn 0.7167 0.6944 0.0649
vn -0.0999 0.9842 -0.1462
vn -0.1087 0.9709 0.2135
vn 0.6042 0.6454 0.4674
vn -0.0999 0.6912 0.7157
vn -1.0000 0.0014 0.0004
vn -1.0000 0.0018 0.0003
vn -1.0000 -0.0014 -0.0004
vn -1.0000 -0.0018 -0.0003
vn -0.8140 -0.0046 -0.5808
vn -0.8445 -0.3409 -0.4132
vn -0.8360 0.1741 -0.5203
vn -0.8113 -0.1859 -0.5543
vn -0.7981 -0.4221 -0.4299
vn -0.8122 -0.5646 -0.1469
vn -0.8451 -0.5181 0.1317
vn -0.7973 -0.5737 0.1877
vn -0.8106 -0.4274 0.4002
vn -0.8056 -0.2420 0.5407
vn -0.8393 -0.1663 0.5177
vn -0.8140 0.0045 0.5808
vn -0.8445 0.3409 0.4132
vn -0.8113 0.1858 0.5544
vn -0.7981 0.4221 0.4299
vn -0.8093 0.5714 0.1365
vn -0.8413 0.5236 -0.1345
vn -0.8088 0.5122 -0.2889
vn -0.8063 0.2614 -0.5307
s off
f 56//1 203//1 60//1
f 118//2 61//2 56//2
f 203//3 225//3 221//3
f 318//4 350//4 312//4
f 318//5 348//5 321//5
f 56//1 61//1 203//1
f 203//3 61//3 225//3
f 318//6 349//6 350//6
s 1
f 5//7 6//7 7//7
f 5//7 7//7 8//7
f 5//7 8//7 9//7
f 7//7 10//7 11//7
f 7//7 11//7 8//7
f 12//7 13//7 14//7
f 12//7 14//7 15//7
f 12//7 15//7 16//7
f 12//7 16//7 17//7
f 18//7 19//7 12//7
f 12//7 19//7 13//7
f 20//7 19//7 18//7
f 21//7 22//7 23//7
f 23//7 22//7 24//7
f 23//7 24//7 20//7
f 20//7 24//7 19//7
f 25//7 26//7 27//7
f 27//7 26//7 28//7
f 27//7 28//7 29//7
f 29//7 28//7 30//7
f 29//7 30//7 21//7
f 21//7 30//7 22//7
f 31//7 32//7 33//7
f 33//7 32//7 34//7
f 33//7 34//7 25//7
f 25//7 34//7 26//7
f 6//7 5//7 32//7
f 6//7 32//7 31//7
f 35//7 17//7 36//7
f 36//7 17//7 16//7
f 36//7 37//7 35//7
f 38//7 39//7 40//7
f 38//7 40//7 41//7
f 41//7 40//7 37//7
f 41//7 37//7 36//7
f 42//7 43//7 44//7
f 42//7 44//7 45//7
f 45//7 44//7 46//7
f 45//7 46//7 38//7
f 38//7 46//7 39//7
f 10//7 47//7 48//7
f 48//7 47//7 49//7
f 48//7 49//7 43//7
f 48//7 43//7 42//7
f 10//7 7//7 47//7
f 50//8 51//9 52//10
f 50//8 52//10 53//11
f 50//8 53//11 54//11
f 50//8 54//11 55//11
f 56//12 57//12 58//13
f 56//12 58//13 59//12
f 60//12 57//12 56//12
f 61//14 62//15 63//16
f 61//14 63//16 64//17
f 61//14 64//17 65//17
f 66//3 67//3 68//3
f 69//18 70//3 71//19
f 72//3 73//3 74//3
f 75//20 76//3 77//3
f 78//3 71//19 70//3
f 79//3 67//3 66//3
f 80//3 81//21 82//18
f 80//3 82//18 75//20
f 80//3 75//20 77//3
f 83//3 84//3 73//3
f 83//3 73//3 72//3
f 83//3 72//3 85//3
f 86//3 87//3 88//3
f 86//3 88//3 89//3
f 90//3 91//3 92//3
f 90//3 92//3 93//3
f 93//3 92//3 94//3
f 93//3 94//3 95//3
f 94//3 96//3 95//3
f 97//3 96//3 94//3
f 96//3 97//3 98//3
f 98//3 97//3 99//3
f 98//3 99//3 100//3
f 100//3 99//3 68//3
f 68//3 99//3 101//3
f 68//3 101//3 66//3
f 93//3 95//3 102//3
f 93//3 102//3 103//3
f 103//3 102//3 104//3
f 103//3 104//3 105//3
f 103//3 105//3 106//22
f 106//22 105//3 70//3
f 106//22 70//3 69//18
f 81//21 80//3 107//3
f 81//21 107//3 108//3
f 108//3 107//3 109//3
f 108//3 109//3 87//3
f 87//3 109//3 110//3
f 87//3 110//3 88//3
f 74//3 73//3 111//3
f 111//3 73//3 112//3
f 111//3 112//3 113//3
f 113//3 112//3 89//3
f 89//3 112//3 86//3
f 87//3 86//3 114//3
f 87//3 114//3 115//3
f 115//3 114//3 116//3
f 117//23 118//24 119//25
f 120//26 121//27 117//23
f 122//28 121//27 120//26
f 122//28 123//29 121//27
f 124//30 123//29 122//28
f 124//30 125//31 123//29
f 126//32 125//31 124//30
f 126//32 127//33 125//31
f 128//34 127//33 126//32
f 128//34 129//35 127//33
f 130//36 129//35 128//34
f 130//36 131//37 129//35
f 132//38 131//37 130//36
f 132//38 133//39 131//37
f 134//40 133//39 132//38
f 135//41 136//42 137//43
f 137//43 138//44 135//41
f 138//44 139//45 140//46
f 141//47 135//41 138//44
f 141//47 138//44 140//46
f 118//24 117//23 121//27
f 118//24 121//27 142//48
f 137//43 136//42 134//40
f 134//40 136//42 133//39
f 117//23 119//25 143//49
f 139//45 144//50 140//46
f 145//51 144//50 139//45
f 146//52 147//53 145//51
f 146//52 148//54 147//53
f 149//55 148//54 146//52
f 149//55 150//56 148//54
f 149//55 151//57 150//56
f 152//58 150//56 151//57
f 151//57 153//59 152//58
f 154//60 152//58 153//59
f 153//59 155//61 154//60
f 156//62 154//60 155//61
f 155//61 157//63 156//62
f 158//64 156//62 157//63
f 157//63 159//65 158//64
f 160//66 158//64 159//65
f 159//65 161//67 160//66
f 162//68 160//66 161//67
f 161//67 163//69 162//68
f 163//69 143//49 162//68
f 119//25 164//70 143//49
f 164//70 165//71 162//68
f 164//70 162//68 143//49
f 166//72 144//50 145//51
f 166//72 145//51 147//53
f 167//73 140//46 144//50
f 167//73 144//50 168//74
f 169//3 170//3 171//3
f 169//3 171//3 172//3
f 169//3 172//3 173//3
f 169//3 173//3 174//3
f 175//3 176//3 171//3
f 171//3 176//3 172//3
f 177//75 178//76 179//77
f 179//77 178//76 180//78
f 168//74 144//50 166//72
f 181//79 182//80 183//81
f 183//81 182//80 184//82
f 140//46 167//73 141//47
f 185//1 186//83 187//84
f 187//84 186//83 188//85
f 189//86 190//87 191//88
f 191//88 190//87 192//89
f 193//90 194//91 195//92
f 193//90 195//92 196//93
f 193//90 196//93 197//94
f 198//95 199//96 200//97
f 199//96 201//98 200//97
f 200//97 201//98 202//99
f 206//3 207//3 208//3
f 206//3 208//3 209//3
f 210//100 211//101 212//102
f 212//102 211//101 213//103
f 211//101 214//104 213//103
f 215//105 216//106 217//107
f 217//107 216//106 218//108
f 216//106 219//109 218//108
f 218//108 219//109 220//110
f 221//111 222//111 223//111
f 222//111 221//111 224//111
f 224//111 221//111 225//111
f 224//111 225//111 226//112
f 226//112 225//111 227//113
f 226//112 227//113 228//114
f 229//7 230//7 231//7
f 229//7 231//7 232//7
f 233//7 234//7 235//7
f 236//7 234//7 233//7
f 237//115 238//116 239//117
f 240//118 238//116 237//115
f 241//119 240//118 237//115
f 242//120 240//118 241//119
f 243//121 242//120 241//119
f 244//122 242//120 243//121
f 245//123 244//122 243//121
f 246//124 244//122 245//123
f 247//125 246//124 245//123
f 248//126 246//124 247//125
f 249//127 250//128 251//129
f 251//129 252//130 249//127
f 252//130 251//129 253//131
f 253//131 254//132 252//130
f 254//132 253//131 255//133
f 255//133 256//134 254//132
f 256//134 255//133 257//135
f 257//135 258//136 256//134
f 258//136 257//135 259//137
f 260//138 261//139 238//116
f 238//116 261//139 239//117
f 262//140 263//140 264//140
f 212//102 213//103 265//141
f 259//137 266//142 258//136
f 250//128 249//127 248//126
f 250//128 248//126 247//125
f 267//143 268//144 269//145
f 270//146 268//144 267//143
f 271//147 270//146 267//143
f 272//148 270//146 271//147
f 273//149 272//148 271//147
f 274//150 272//148 273//149
f 275//151 274//150 273//149
f 276//152 274//150 275//151
f 277//153 276//152 275//151
f 278//154 279//155 280//156
f 279//155 278//154 281//157
f 281//157 282//158 279//155
f 282//158 281//157 283//159
f 283//159 284//160 282//158
f 284//160 283//159 285//161
f 285//161 286//162 284//160
f 286//162 285//161 287//163
f 287//163 288//164 286//162
f 288//164 287//163 289//165
f 261//139 290//166 239//117
f 196//93 195//92 291//167
f 218//108 220//110 292//168
f 278//154 280//156 277//153
f 277//153 280//156 276//152
f 293//169 294//170 295//171
f 296//172 297//173 294//170
f 296//172 294//170 293//169
f 298//174 299//175 300//176
f 298//174 300//176 301//177
f 298//174 301//177 302//178
f 299//175 298//174 303//179
f 301//177 300//176 304//180
f 304//180 300//176 305//181
f 304//180 305//181 306//182
f 304//180 306//182 307//183
f 307//183 306//182 308//184
f 307//183 308//184 309//185
f 309//185 308//184 310//186
f 309//185 310//186 297//173
f 297//173 310//186 294//170
f 296//172 311//187 297//173
f 297//173 311//187 312//188
f 303//179 313//189 299//175
f 314//190 315//191 313//189
f 314//190 313//189 303//179
f 350//192 295//171 317//193
f 316//194 312//188 311//187
f 318//195 317//196 319//197
f 321//198 320//199 322//200
f 321//198 322//200 323//201
f 323//201 322//200 324//202
f 323//201 324//202 315//191
f 315//191 324//202 313//189
f 314//190 302//178 315//191
f 315//191 302//178 301//177
f 293//169 295//171 350//192
f 325//203 326//204 327//22
f 325//203 327//22 328//21
f 328//21 327//22 329//205
f 328//21 329//205 330//206
f 331//207 332//208 333//209
f 331//207 334//210 332//208
f 334//210 335//211 332//208
f 335//211 336//212 332//208
f 332//208 336//212 337//213
f 336//212 338//214 337//213
f 338//214 339//215 337//213
f 339//215 340//216 341//217
f 337//213 339//215 341//217
f 340//216 342//218 341//217
f 342//218 343//219 341//217
f 342//218 344//220 343//219
f 344//220 345//221 343//219
f 345//221 346//222 343//219
f 343//219 346//222 347//223
f 346//222 348//224 347//223
f 348//224 349//225 333//209
f 347//223 348//224 333//209
f 349//225 331//207 333//209
f 315//191 307//183 321//198
f 304//180 307//183 301//177
f 307//183 309//185 297//173
f 321//198 297//173 312//188
f 307//183 297//173 321//198
f 312//188 318//7 321//198
f 321//198 323//201 315//191
f 315//191 301//177 307//183
